<svg width="316" height="203" viewBox="0 0 316 203" fill="none" xmlns="http://www.w3.org/2000/svg">
<g filter="url(#filter0_d_64950_317)">
<rect x="30" y="15" width="256" height="143" rx="10" fill="#333333"/>
</g>
<path d="M56.512 45.704L56.928 47.128H57.008L57.328 45.656L59.472 39.8H60.832L58 47.08C57.712 47.8373 57.456 48.472 57.232 48.984C57.0187 49.4853 56.8 49.896 56.576 50.216C56.352 50.5253 56.112 50.7493 55.856 50.888C55.6 51.016 55.2853 51.08 54.912 51.08C54.56 51.08 54.2773 51.0533 54.064 51C53.8613 50.936 53.6693 50.8453 53.488 50.728L53.888 49.624C54.1013 49.7413 54.2987 49.816 54.48 49.848C54.6613 49.88 54.8267 49.896 54.976 49.896C55.2747 49.896 55.5253 49.7467 55.728 49.448C55.9307 49.1387 56.1067 48.6853 56.256 48.088L52.112 39.8H53.648L56.512 45.704ZM63.2636 47.4H62.5276V51H61.2476V43H62.5276V46.616L63.2156 46.392L65.7756 43H67.1676L64.6876 46.216L64.0156 46.744L64.8476 47.384L67.5196 51H65.9356L63.2636 47.4ZM68.7603 43.592C69.1656 43.3467 69.6349 43.1653 70.1683 43.048C70.7123 42.9307 71.2776 42.872 71.8643 42.872C72.4189 42.872 72.8616 42.9467 73.1923 43.096C73.5336 43.2453 73.7896 43.4427 73.9603 43.688C74.1416 43.9227 74.2589 44.184 74.3123 44.472C74.3763 44.76 74.4083 45.048 74.4083 45.336C74.4083 45.976 74.3923 46.6 74.3603 47.208C74.3283 47.816 74.3123 48.392 74.3123 48.936C74.3123 49.3307 74.3283 49.704 74.3603 50.056C74.3923 50.408 74.4509 50.7333 74.5363 51.032H73.5923L73.2563 49.912H73.1763C73.0803 50.0613 72.9576 50.2107 72.8083 50.36C72.6696 50.4987 72.4989 50.6267 72.2963 50.744C72.0936 50.8507 71.8589 50.9413 71.5923 51.016C71.3256 51.0907 71.0216 51.128 70.6803 51.128C70.3389 51.128 70.0189 51.0747 69.7203 50.968C69.4323 50.8613 69.1816 50.712 68.9683 50.52C68.7549 50.3173 68.5843 50.0773 68.4563 49.8C68.3389 49.5227 68.2803 49.208 68.2803 48.856C68.2803 48.3867 68.3763 47.9973 68.5683 47.688C68.7603 47.368 69.0269 47.1173 69.3683 46.936C69.7203 46.744 70.1363 46.6107 70.6163 46.536C71.1069 46.4507 71.6456 46.408 72.2323 46.408C72.3816 46.408 72.5256 46.408 72.6643 46.408C72.8136 46.408 72.9629 46.4187 73.1123 46.44C73.1443 46.12 73.1603 45.832 73.1603 45.576C73.1603 44.9893 73.0429 44.5787 72.8083 44.344C72.5736 44.1093 72.1469 43.992 71.5283 43.992C71.3469 43.992 71.1496 44.008 70.9363 44.04C70.7336 44.0613 70.5203 44.0987 70.2963 44.152C70.0829 44.1947 69.8749 44.2533 69.6723 44.328C69.4803 44.392 69.3096 44.4667 69.1603 44.552L68.7603 43.592ZM71.0323 50.008C71.3309 50.008 71.5976 49.9707 71.8323 49.896C72.0669 49.8107 72.2696 49.7093 72.4403 49.592C72.6109 49.464 72.7496 49.3253 72.8563 49.176C72.9736 49.0267 73.0589 48.8827 73.1123 48.744V47.416C72.9629 47.4053 72.8083 47.4 72.6483 47.4C72.4989 47.3893 72.3496 47.384 72.2003 47.384C71.8696 47.384 71.5443 47.4053 71.2243 47.448C70.9149 47.48 70.6376 47.5493 70.3923 47.656C70.1576 47.752 69.9656 47.8907 69.8163 48.072C69.6776 48.2427 69.6083 48.4613 69.6083 48.728C69.6083 49.1013 69.7416 49.4107 70.0082 49.656C70.2749 49.8907 70.6163 50.008 71.0323 50.008ZM79.4338 47.464L77.0818 51H75.6098L78.1378 47.336L78.6818 46.856L77.8658 46.248L75.7858 43H77.1458L79.3538 46.456H80.1858V43H81.4338V46.616L82.1858 46.392L84.4097 43H85.7538L83.5778 46.248L82.9538 46.76L83.7698 47.4L86.1378 51H84.6178L82.2658 47.4H81.4338V51H80.1858V47.24L79.4338 47.464ZM92.3646 46.264L92.4126 45.272H92.3646L91.7086 46.296L88.1086 51H87.3726V43H88.6526V47.88L88.6046 48.824H88.6686L89.2926 47.832L92.8926 43H93.6446V51H92.3646V46.264ZM101.211 44.12H98.699V51H97.419V44.12H94.907V43H101.211V44.12ZM108.072 50.36C107.752 50.616 107.347 50.8187 106.856 50.968C106.376 51.1173 105.864 51.192 105.32 51.192C104.712 51.192 104.184 51.096 103.736 50.904C103.288 50.7013 102.92 50.4187 102.632 50.056C102.344 49.6827 102.131 49.24 101.992 48.728C101.853 48.216 101.784 47.64 101.784 47C101.784 45.6347 102.088 44.5947 102.696 43.88C103.304 43.1653 104.173 42.808 105.304 42.808C105.667 42.808 106.029 42.8507 106.392 42.936C106.755 43.0107 107.08 43.16 107.368 43.384C107.656 43.608 107.891 43.928 108.072 44.344C108.253 44.7493 108.344 45.288 108.344 45.96C108.344 46.312 108.312 46.7013 108.248 47.128H103.112C103.112 47.5973 103.16 48.0133 103.256 48.376C103.352 48.7387 103.501 49.048 103.704 49.304C103.907 49.5493 104.168 49.7413 104.488 49.88C104.819 50.008 105.219 50.072 105.688 50.072C106.051 50.072 106.413 50.008 106.776 49.88C107.139 49.752 107.411 49.6027 107.592 49.432L108.072 50.36ZM105.32 43.928C104.691 43.928 104.184 44.0933 103.8 44.424C103.427 44.7547 103.203 45.32 103.128 46.12H107.096C107.096 45.3093 106.941 44.744 106.632 44.424C106.323 44.0933 105.885 43.928 105.32 43.928ZM116.639 47.4H115.903V51H114.623V43H115.903V46.616L116.591 46.392L119.151 43H120.543L118.063 46.216L117.391 46.744L118.223 47.384L120.895 51H119.311L116.639 47.4ZM121.643 47C121.643 45.6453 121.942 44.6107 122.539 43.896C123.147 43.1707 124.017 42.808 125.147 42.808C125.745 42.808 126.262 42.9093 126.699 43.112C127.147 43.304 127.515 43.5867 127.803 43.96C128.091 44.3227 128.305 44.7653 128.443 45.288C128.582 45.8 128.651 46.3707 128.651 47C128.651 48.3547 128.347 49.3947 127.739 50.12C127.142 50.8347 126.278 51.192 125.147 51.192C124.55 51.192 124.027 51.096 123.579 50.904C123.142 50.7013 122.779 50.4187 122.491 50.056C122.203 49.6827 121.99 49.24 121.851 48.728C121.713 48.2053 121.643 47.6293 121.643 47ZM122.971 47C122.971 47.4053 123.009 47.7947 123.083 48.168C123.169 48.5413 123.297 48.8667 123.467 49.144C123.638 49.4213 123.862 49.6453 124.139 49.816C124.417 49.9867 124.753 50.072 125.147 50.072C126.598 50.0827 127.323 49.0587 127.323 47C127.323 46.584 127.281 46.1893 127.195 45.816C127.121 45.4427 126.998 45.1173 126.827 44.84C126.657 44.5627 126.433 44.344 126.155 44.184C125.878 44.0133 125.542 43.928 125.147 43.928C123.697 43.9173 122.971 44.9413 122.971 47ZM134.88 44.12H132.56C132.528 44.568 132.496 45.0533 132.464 45.576C132.432 46.088 132.384 46.6053 132.32 47.128C132.256 47.64 132.17 48.136 132.064 48.616C131.957 49.0853 131.818 49.5013 131.648 49.864C131.488 50.2267 131.285 50.52 131.04 50.744C130.805 50.9573 130.522 51.064 130.192 51.064C129.989 51.064 129.813 51.0533 129.664 51.032C129.514 51.0107 129.381 50.9733 129.264 50.92L129.456 49.848C129.584 49.8907 129.722 49.912 129.872 49.912C130.085 49.912 130.277 49.8213 130.448 49.64C130.618 49.4587 130.768 49.1173 130.896 48.616C131.024 48.104 131.13 47.4 131.216 46.504C131.301 45.608 131.36 44.44 131.392 43H136.16V51H134.88V44.12ZM143.615 46.264L143.663 45.272H143.615L142.959 46.296L139.359 51H138.623V43H139.903V47.88L139.855 48.824H139.919L140.543 47.832L144.143 43H144.895V51H143.615V46.264ZM148.189 43V45.176C148.189 45.464 148.205 45.7253 148.237 45.96C148.269 46.184 148.333 46.3813 148.429 46.552C148.525 46.712 148.664 46.84 148.845 46.936C149.026 47.0213 149.266 47.064 149.565 47.064C150.045 47.064 150.44 47.0107 150.749 46.904C151.058 46.7973 151.293 46.68 151.453 46.552V43H152.733V51H151.453V47.64C151.282 47.7467 151.026 47.864 150.685 47.992C150.354 48.12 149.896 48.184 149.309 48.184C148.914 48.184 148.568 48.1413 148.269 48.056C147.97 47.9707 147.72 47.8213 147.517 47.608C147.314 47.3947 147.16 47.112 147.053 46.76C146.957 46.408 146.909 45.9653 146.909 45.432V43H148.189ZM161.041 50.36C160.721 50.616 160.315 50.8187 159.825 50.968C159.345 51.1173 158.833 51.192 158.289 51.192C157.681 51.192 157.153 51.096 156.705 50.904C156.257 50.7013 155.889 50.4187 155.601 50.056C155.313 49.6827 155.099 49.24 154.961 48.728C154.822 48.216 154.753 47.64 154.753 47C154.753 45.6347 155.057 44.5947 155.665 43.88C156.273 43.1653 157.142 42.808 158.273 42.808C158.635 42.808 158.998 42.8507 159.361 42.936C159.723 43.0107 160.049 43.16 160.337 43.384C160.625 43.608 160.859 43.928 161.041 44.344C161.222 44.7493 161.313 45.288 161.313 45.96C161.313 46.312 161.281 46.7013 161.217 47.128H156.081C156.081 47.5973 156.129 48.0133 156.225 48.376C156.321 48.7387 156.47 49.048 156.673 49.304C156.875 49.5493 157.137 49.7413 157.457 49.88C157.787 50.008 158.187 50.072 158.657 50.072C159.019 50.072 159.382 50.008 159.745 49.88C160.107 49.752 160.379 49.6027 160.561 49.432L161.041 50.36ZM158.289 43.928C157.659 43.928 157.153 44.0933 156.769 44.424C156.395 44.7547 156.171 45.32 156.097 46.12H160.065C160.065 45.3093 159.91 44.744 159.601 44.424C159.291 44.0933 158.854 43.928 158.289 43.928ZM168.61 50.472C168.29 50.7067 167.911 50.8827 167.474 51C167.037 51.128 166.578 51.192 166.098 51.192C165.479 51.192 164.957 51.096 164.53 50.904C164.103 50.7013 163.751 50.4187 163.474 50.056C163.207 49.6827 163.01 49.24 162.882 48.728C162.765 48.2053 162.706 47.6293 162.706 47C162.706 45.6453 163.005 44.6107 163.602 43.896C164.199 43.1707 165.058 42.808 166.178 42.808C166.69 42.808 167.122 42.8507 167.474 42.936C167.837 43.0107 168.162 43.1227 168.45 43.272L168.082 44.376C167.837 44.2373 167.565 44.1307 167.266 44.056C166.967 43.9707 166.647 43.928 166.306 43.928C164.791 43.928 164.034 44.952 164.034 47C164.034 47.4053 164.071 47.7947 164.146 48.168C164.231 48.5307 164.365 48.856 164.546 49.144C164.738 49.4213 164.983 49.6453 165.282 49.816C165.591 49.9867 165.97 50.072 166.418 50.072C166.802 50.072 167.143 50.0133 167.442 49.896C167.751 49.7787 168.002 49.6453 168.194 49.496L168.61 50.472ZM175.227 44.12H172.715V51H171.435V44.12H168.923V43H175.227V44.12ZM176.498 43.016C176.871 42.9947 177.26 42.968 177.666 42.936C178.082 42.904 178.594 42.888 179.202 42.888C180.258 42.888 181.015 43.0533 181.474 43.384C181.932 43.704 182.162 44.1947 182.162 44.856C182.162 45.2293 182.05 45.5973 181.826 45.96C181.612 46.312 181.255 46.5733 180.754 46.744V46.808C181.383 46.9253 181.826 47.144 182.082 47.464C182.338 47.784 182.466 48.2107 182.466 48.744C182.466 49.576 182.167 50.1787 181.57 50.552C180.972 50.9253 180.076 51.112 178.882 51.112C178.434 51.112 178.018 51.096 177.634 51.064C177.25 51.0427 176.871 51.016 176.498 50.984V43.016ZM177.778 49.928C177.98 49.9493 178.178 49.9653 178.37 49.976C178.572 49.9867 178.807 49.992 179.074 49.992C179.788 49.992 180.316 49.8907 180.658 49.688C181.01 49.4853 181.186 49.1387 181.186 48.648C181.186 48.264 181.036 47.9547 180.738 47.72C180.45 47.4747 179.932 47.352 179.186 47.352H177.778V49.928ZM179.346 46.376C179.538 46.376 179.724 46.344 179.906 46.28C180.087 46.216 180.247 46.1307 180.386 46.024C180.535 45.9067 180.652 45.7733 180.738 45.624C180.834 45.4747 180.882 45.3147 180.882 45.144C180.882 44.7173 180.754 44.424 180.498 44.264C180.242 44.0933 179.794 44.008 179.154 44.008C178.812 44.008 178.54 44.0133 178.338 44.024C178.146 44.0347 177.959 44.0453 177.778 44.056V46.376H179.346ZM184.034 47C184.034 45.6453 184.333 44.6107 184.93 43.896C185.538 43.1707 186.407 42.808 187.538 42.808C188.135 42.808 188.653 42.9093 189.09 43.112C189.538 43.304 189.906 43.5867 190.194 43.96C190.482 44.3227 190.695 44.7653 190.834 45.288C190.973 45.8 191.042 46.3707 191.042 47C191.042 48.3547 190.738 49.3947 190.13 50.12C189.533 50.8347 188.669 51.192 187.538 51.192C186.941 51.192 186.418 51.096 185.97 50.904C185.533 50.7013 185.17 50.4187 184.882 50.056C184.594 49.6827 184.381 49.24 184.242 48.728C184.103 48.2053 184.034 47.6293 184.034 47ZM185.362 47C185.362 47.4053 185.399 47.7947 185.474 48.168C185.559 48.5413 185.687 48.8667 185.858 49.144C186.029 49.4213 186.253 49.6453 186.53 49.816C186.807 49.9867 187.143 50.072 187.538 50.072C188.989 50.0827 189.714 49.0587 189.714 47C189.714 46.584 189.671 46.1893 189.586 45.816C189.511 45.4427 189.389 45.1173 189.218 44.84C189.047 44.5627 188.823 44.344 188.546 44.184C188.269 44.0133 187.933 43.928 187.538 43.928C186.087 43.9173 185.362 44.9413 185.362 47ZM204.398 53.032H203.534L203.294 51H197.278L197.038 53.032H196.174V49.88H197.118C197.203 49.7627 197.315 49.5547 197.454 49.256C197.592 48.9467 197.726 48.52 197.854 47.976C197.992 47.4213 198.11 46.7387 198.206 45.928C198.312 45.1067 198.376 44.1307 198.398 43H203.23V49.88H204.398V53.032ZM201.95 49.88V44.12H199.55C199.528 44.568 199.491 45.0587 199.438 45.592C199.384 46.1147 199.31 46.6427 199.214 47.176C199.128 47.6987 199.016 48.1947 198.878 48.664C198.739 49.1333 198.579 49.5387 198.398 49.88H201.95ZM211.822 50.36C211.502 50.616 211.097 50.8187 210.606 50.968C210.126 51.1173 209.614 51.192 209.07 51.192C208.462 51.192 207.934 51.096 207.486 50.904C207.038 50.7013 206.67 50.4187 206.382 50.056C206.094 49.6827 205.881 49.24 205.742 48.728C205.603 48.216 205.534 47.64 205.534 47C205.534 45.6347 205.838 44.5947 206.446 43.88C207.054 43.1653 207.923 42.808 209.054 42.808C209.417 42.808 209.779 42.8507 210.142 42.936C210.505 43.0107 210.83 43.16 211.118 43.384C211.406 43.608 211.641 43.928 211.822 44.344C212.003 44.7493 212.094 45.288 212.094 45.96C212.094 46.312 212.062 46.7013 211.998 47.128H206.862C206.862 47.5973 206.91 48.0133 207.006 48.376C207.102 48.7387 207.251 49.048 207.454 49.304C207.657 49.5493 207.918 49.7413 208.238 49.88C208.569 50.008 208.969 50.072 209.438 50.072C209.801 50.072 210.163 50.008 210.526 49.88C210.889 49.752 211.161 49.6027 211.342 49.432L211.822 50.36ZM209.07 43.928C208.441 43.928 207.934 44.0933 207.55 44.424C207.177 44.7547 206.953 45.32 206.878 46.12H210.846C210.846 45.3093 210.691 44.744 210.382 44.424C210.073 44.0933 209.635 43.928 209.07 43.928ZM219.211 44.12H216.699V51H215.419V44.12H212.907V43H219.211V44.12ZM226.072 50.36C225.752 50.616 225.347 50.8187 224.856 50.968C224.376 51.1173 223.864 51.192 223.32 51.192C222.712 51.192 222.184 51.096 221.736 50.904C221.288 50.7013 220.92 50.4187 220.632 50.056C220.344 49.6827 220.131 49.24 219.992 48.728C219.853 48.216 219.784 47.64 219.784 47C219.784 45.6347 220.088 44.5947 220.696 43.88C221.304 43.1653 222.173 42.808 223.304 42.808C223.667 42.808 224.029 42.8507 224.392 42.936C224.755 43.0107 225.08 43.16 225.368 43.384C225.656 43.608 225.891 43.928 226.072 44.344C226.253 44.7493 226.344 45.288 226.344 45.96C226.344 46.312 226.312 46.7013 226.248 47.128H221.112C221.112 47.5973 221.16 48.0133 221.256 48.376C221.352 48.7387 221.501 49.048 221.704 49.304C221.907 49.5493 222.168 49.7413 222.488 49.88C222.819 50.008 223.219 50.072 223.688 50.072C224.051 50.072 224.413 50.008 224.776 49.88C225.139 49.752 225.411 49.6027 225.592 49.432L226.072 50.36ZM223.32 43.928C222.691 43.928 222.184 44.0933 221.8 44.424C221.427 44.7547 221.203 45.32 221.128 46.12H225.096C225.096 45.3093 224.941 44.744 224.632 44.424C224.323 44.0933 223.885 43.928 223.32 43.928ZM233.349 46.264L233.397 45.272H233.349L232.693 46.296L229.093 51H228.357V43H229.637V47.88L229.589 48.824H229.653L230.277 47.832L233.877 43H234.629V51H233.349V46.264ZM230.197 39.768C230.304 40.2587 230.485 40.6 230.741 40.792C231.008 40.984 231.312 41.08 231.653 41.08C231.994 41.08 232.298 40.9787 232.565 40.776C232.832 40.5733 233.013 40.2427 233.109 39.784L234.069 40.088C233.973 40.7067 233.696 41.1813 233.237 41.512C232.789 41.8427 232.25 42.008 231.621 42.008C231.333 42.008 231.045 41.9707 230.757 41.896C230.48 41.8213 230.229 41.7093 230.005 41.56C229.781 41.4107 229.589 41.2187 229.429 40.984C229.269 40.7493 229.162 40.472 229.109 40.152L230.197 39.768ZM236.643 50.312C236.643 50.056 236.729 49.848 236.899 49.688C237.07 49.528 237.289 49.448 237.555 49.448C237.886 49.448 238.153 49.5653 238.355 49.8C238.569 50.0347 238.675 50.376 238.675 50.824C238.675 51.208 238.622 51.544 238.515 51.832C238.409 52.12 238.27 52.3653 238.099 52.568C237.929 52.7813 237.742 52.952 237.539 53.08C237.337 53.2187 237.134 53.32 236.931 53.384L236.531 52.76C236.915 52.6107 237.198 52.376 237.379 52.056C237.571 51.7467 237.667 51.432 237.667 51.112C237.571 51.144 237.481 51.16 237.395 51.16C237.182 51.16 237.001 51.0907 236.851 50.952C236.713 50.8027 236.643 50.5893 236.643 50.312ZM55.248 67.4H54.512V71H53.232V63H54.512V66.616L55.2 66.392L57.76 63H59.152L56.672 66.216L56 66.744L56.832 67.384L59.504 71H57.92L55.248 67.4ZM60.2528 67C60.2528 65.6453 60.5514 64.6107 61.1488 63.896C61.7568 63.1707 62.6261 62.808 63.7568 62.808C64.3541 62.808 64.8714 62.9093 65.3088 63.112C65.7568 63.304 66.1248 63.5867 66.4128 63.96C66.7008 64.3227 66.9141 64.7653 67.0528 65.288C67.1914 65.8 67.2608 66.3707 67.2608 67C67.2608 68.3547 66.9568 69.3947 66.3488 70.12C65.7514 70.8347 64.8874 71.192 63.7568 71.192C63.1594 71.192 62.6368 71.096 62.1888 70.904C61.7514 70.7013 61.3888 70.4187 61.1008 70.056C60.8128 69.6827 60.5994 69.24 60.4608 68.728C60.3221 68.2053 60.2528 67.6293 60.2528 67ZM61.5807 67C61.5807 67.4053 61.6181 67.7947 61.6928 68.168C61.7781 68.5413 61.9061 68.8667 62.0768 69.144C62.2474 69.4213 62.4714 69.6453 62.7488 69.816C63.0261 69.9867 63.3621 70.072 63.7568 70.072C65.2074 70.0827 65.9328 69.0587 65.9328 67C65.9328 66.584 65.8901 66.1893 65.8048 65.816C65.7301 65.4427 65.6074 65.1173 65.4368 64.84C65.2661 64.5627 65.0421 64.344 64.7648 64.184C64.4874 64.0133 64.1514 63.928 63.7568 63.928C62.3061 63.9173 61.5807 64.9413 61.5807 67ZM74.1329 64.12H71.6209V71H70.3409V64.12H67.8289V63H74.1329V64.12ZM74.7059 67C74.7059 65.6453 75.0045 64.6107 75.6019 63.896C76.2099 63.1707 77.0792 62.808 78.2099 62.808C78.8072 62.808 79.3245 62.9093 79.7619 63.112C80.2099 63.304 80.5779 63.5867 80.8659 63.96C81.1539 64.3227 81.3672 64.7653 81.5059 65.288C81.6445 65.8 81.7139 66.3707 81.7139 67C81.7139 68.3547 81.4099 69.3947 80.8019 70.12C80.2045 70.8347 79.3405 71.192 78.2099 71.192C77.6125 71.192 77.0899 71.096 76.6419 70.904C76.2045 70.7013 75.8419 70.4187 75.5539 70.056C75.2659 69.6827 75.0525 69.24 74.9139 68.728C74.7752 68.2053 74.7059 67.6293 74.7059 67ZM76.0339 67C76.0339 67.4053 76.0712 67.7947 76.1459 68.168C76.2312 68.5413 76.3592 68.8667 76.5299 69.144C76.7005 69.4213 76.9245 69.6453 77.2019 69.816C77.4792 69.9867 77.8152 70.072 78.2099 70.072C79.6605 70.0827 80.3859 69.0587 80.3859 67C80.3859 66.584 80.3432 66.1893 80.2579 65.816C80.1832 65.4427 80.0605 65.1173 79.8899 64.84C79.7192 64.5627 79.4952 64.344 79.2179 64.184C78.9405 64.0133 78.6045 63.928 78.2099 63.928C76.7592 63.9173 76.0339 64.9413 76.0339 67ZM83.732 63H84.612L84.852 63.96H84.916C85.1613 63.5867 85.476 63.304 85.86 63.112C86.2547 62.9093 86.7027 62.808 87.204 62.808C88.2707 62.808 89.0653 63.1227 89.588 63.752C90.1107 64.3813 90.372 65.4107 90.372 66.84C90.372 67.512 90.2813 68.12 90.1 68.664C89.9293 69.1973 89.684 69.6507 89.364 70.024C89.044 70.3973 88.6547 70.6853 88.196 70.888C87.748 71.0907 87.2467 71.192 86.692 71.192C86.2973 71.192 85.9827 71.1653 85.748 71.112C85.524 71.0693 85.2787 70.9893 85.012 70.872V74.2H83.732V63ZM86.964 63.928C86.42 63.928 85.988 64.072 85.668 64.36C85.3587 64.6373 85.14 65.064 85.012 65.64V69.608C85.204 69.7573 85.4227 69.8747 85.668 69.96C85.9133 70.0347 86.2387 70.072 86.644 70.072C87.38 70.072 87.9613 69.8 88.388 69.256C88.8253 68.7013 89.044 67.8907 89.044 66.824C89.044 66.3867 89.0067 65.992 88.932 65.64C88.8573 65.2773 88.7347 64.9733 88.564 64.728C88.404 64.472 88.1907 64.2747 87.924 64.136C87.668 63.9973 87.348 63.928 86.964 63.928ZM93.6683 69.88C94.0629 69.944 94.4416 69.976 94.8043 69.976C95.4763 69.976 95.9456 69.848 96.2123 69.592C96.4789 69.3253 96.6123 68.952 96.6123 68.472C96.6123 68.0453 96.4789 67.6933 96.2123 67.416C95.9563 67.1387 95.5029 67 94.8523 67C94.6709 67 94.4736 67.0053 94.2603 67.016C94.0469 67.0267 93.8496 67.0587 93.6683 67.112V69.88ZM93.6683 66.056C93.9243 66.0133 94.1696 65.9867 94.4043 65.976C94.6389 65.9547 94.8629 65.944 95.0763 65.944C95.6203 65.944 96.0736 66.008 96.4363 66.136C96.8096 66.2533 97.1083 66.4187 97.3323 66.632C97.5563 66.8453 97.7109 67.1013 97.7963 67.4C97.8923 67.688 97.9403 67.9973 97.9403 68.328C97.9403 69.2987 97.6683 70.0027 97.1243 70.44C96.5909 70.8773 95.7216 71.096 94.5163 71.096C93.8336 71.096 93.1243 71.064 92.3883 71V63H93.6683V66.056ZM99.2043 63H100.484V71H99.2043V63ZM108.791 70.36C108.471 70.616 108.065 70.8187 107.575 70.968C107.095 71.1173 106.583 71.192 106.039 71.192C105.431 71.192 104.903 71.096 104.455 70.904C104.007 70.7013 103.639 70.4187 103.351 70.056C103.063 69.6827 102.849 69.24 102.711 68.728C102.572 68.216 102.503 67.64 102.503 67C102.503 65.6347 102.807 64.5947 103.415 63.88C104.023 63.1653 104.892 62.808 106.023 62.808C106.385 62.808 106.748 62.8507 107.111 62.936C107.473 63.0107 107.799 63.16 108.087 63.384C108.375 63.608 108.609 63.928 108.791 64.344C108.972 64.7493 109.063 65.288 109.063 65.96C109.063 66.312 109.031 66.7013 108.967 67.128H103.831C103.831 67.5973 103.879 68.0133 103.975 68.376C104.071 68.7387 104.22 69.048 104.423 69.304C104.625 69.5493 104.887 69.7413 105.207 69.88C105.537 70.008 105.937 70.072 106.407 70.072C106.769 70.072 107.132 70.008 107.495 69.88C107.857 69.752 108.129 69.6027 108.311 69.432L108.791 70.36ZM106.039 63.928C105.409 63.928 104.903 64.0933 104.519 64.424C104.145 64.7547 103.921 65.32 103.847 66.12H107.815C107.815 65.3093 107.66 64.744 107.351 64.424C107.041 64.0933 106.604 63.928 106.039 63.928ZM116.077 64.424C116.429 63.912 116.819 63.5547 117.245 63.352C117.672 63.1387 118.205 63.032 118.845 63.032C119.827 63.032 120.579 63.352 121.101 63.992C121.635 64.632 121.901 65.576 121.901 66.824C121.901 68.264 121.592 69.352 120.973 70.088C120.365 70.824 119.512 71.192 118.413 71.192C117.24 71.192 116.36 70.7867 115.773 69.976C115.187 69.1653 114.893 67.8907 114.893 66.152C114.893 65.2347 114.936 64.4507 115.021 63.8C115.117 63.1493 115.251 62.6 115.421 62.152C115.603 61.704 115.816 61.3467 116.061 61.08C116.317 60.8133 116.6 60.6053 116.909 60.456C117.229 60.296 117.576 60.184 117.949 60.12C118.323 60.056 118.723 60.0027 119.149 59.96C119.704 59.9067 120.136 59.848 120.445 59.784C120.765 59.7093 121.021 59.5813 121.213 59.4L121.357 60.552C121.251 60.648 121.133 60.728 121.005 60.792C120.877 60.856 120.723 60.9093 120.541 60.952C120.36 60.9947 120.141 61.032 119.885 61.064C119.64 61.096 119.352 61.1227 119.021 61.144C118.563 61.176 118.157 61.2347 117.805 61.32C117.464 61.3947 117.165 61.5493 116.909 61.784C116.664 62.008 116.467 62.3333 116.317 62.76C116.179 63.176 116.083 63.7307 116.029 64.424H116.077ZM116.221 67.016C116.221 67.4213 116.264 67.8107 116.349 68.184C116.435 68.5573 116.563 68.888 116.733 69.176C116.915 69.4533 117.144 69.672 117.421 69.832C117.699 69.992 118.024 70.072 118.397 70.072C119.133 70.072 119.677 69.8107 120.029 69.288C120.392 68.7547 120.573 67.9707 120.573 66.936C120.573 66.5307 120.536 66.1573 120.461 65.816C120.387 65.4747 120.269 65.1813 120.109 64.936C119.949 64.68 119.747 64.488 119.501 64.36C119.256 64.2213 118.963 64.152 118.621 64.152C117.789 64.1413 117.181 64.3867 116.797 64.888C116.413 65.3787 116.221 66.088 116.221 67.016ZM126.084 68.184L126.532 69.72H126.612L126.964 68.168L128.516 63H129.812L127.444 70.184C127.263 70.7067 127.081 71.2133 126.9 71.704C126.729 72.1947 126.537 72.632 126.324 73.016C126.111 73.4 125.871 73.704 125.604 73.928C125.337 74.1627 125.028 74.28 124.676 74.28C124.292 74.28 123.977 74.2267 123.732 74.12L123.956 73.016C124.095 73.0693 124.228 73.096 124.356 73.096C124.655 73.096 124.943 72.936 125.22 72.616C125.497 72.3067 125.727 71.768 125.908 71L122.692 63H124.164L126.084 68.184ZM138.038 73.032H137.174L136.934 71H130.918L130.678 73.032H129.814V69.88H130.758C130.844 69.7627 130.956 69.5547 131.094 69.256C131.233 68.9467 131.366 68.52 131.494 67.976C131.633 67.4213 131.75 66.7387 131.846 65.928C131.953 65.1067 132.017 64.1307 132.038 63H136.87V69.88H138.038V73.032ZM135.59 69.88V64.12H133.19C133.169 64.568 133.132 65.0587 133.078 65.592C133.025 66.1147 132.95 66.6427 132.854 67.176C132.769 67.6987 132.657 68.1947 132.518 68.664C132.38 69.1333 132.22 69.5387 132.038 69.88H135.59ZM141.975 68.184L142.423 69.72H142.503L142.855 68.168L144.407 63H145.703L143.335 70.184C143.153 70.7067 142.972 71.2133 142.791 71.704C142.62 72.1947 142.428 72.632 142.215 73.016C142.001 73.4 141.761 73.704 141.495 73.928C141.228 74.1627 140.919 74.28 140.567 74.28C140.183 74.28 139.868 74.2267 139.623 74.12L139.847 73.016C139.985 73.0693 140.119 73.096 140.247 73.096C140.545 73.096 140.833 72.936 141.111 72.616C141.388 72.3067 141.617 71.768 141.799 71L138.583 63H140.055L141.975 68.184ZM152.18 64.12H149.668V71H148.388V64.12H145.876V63H152.18V64.12ZM162.672 70.472C162.352 70.7067 161.974 70.8827 161.536 71C161.099 71.128 160.64 71.192 160.16 71.192C159.542 71.192 159.019 71.096 158.592 70.904C158.166 70.7013 157.814 70.4187 157.536 70.056C157.27 69.6827 157.072 69.24 156.944 68.728C156.827 68.2053 156.768 67.6293 156.768 67C156.768 65.6453 157.067 64.6107 157.664 63.896C158.262 63.1707 159.12 62.808 160.24 62.808C160.752 62.808 161.184 62.8507 161.536 62.936C161.899 63.0107 162.224 63.1227 162.512 63.272L162.144 64.376C161.899 64.2373 161.627 64.1307 161.328 64.056C161.03 63.9707 160.71 63.928 160.368 63.928C158.854 63.928 158.096 64.952 158.096 67C158.096 67.4053 158.134 67.7947 158.208 68.168C158.294 68.5307 158.427 68.856 158.608 69.144C158.8 69.4213 159.046 69.6453 159.344 69.816C159.654 69.9867 160.032 70.072 160.48 70.072C160.864 70.072 161.206 70.0133 161.504 69.896C161.814 69.7787 162.064 69.6453 162.256 69.496L162.672 70.472ZM168.701 63.016C169.074 62.9947 169.463 62.968 169.869 62.936C170.285 62.904 170.797 62.888 171.405 62.888C172.461 62.888 173.218 63.0533 173.677 63.384C174.135 63.704 174.365 64.1947 174.365 64.856C174.365 65.2293 174.253 65.5973 174.029 65.96C173.815 66.312 173.458 66.5733 172.957 66.744V66.808C173.586 66.9253 174.029 67.144 174.285 67.464C174.541 67.784 174.669 68.2107 174.669 68.744C174.669 69.576 174.37 70.1787 173.773 70.552C173.175 70.9253 172.279 71.112 171.085 71.112C170.637 71.112 170.221 71.096 169.837 71.064C169.453 71.0427 169.074 71.016 168.701 70.984V63.016ZM169.981 69.928C170.183 69.9493 170.381 69.9653 170.573 69.976C170.775 69.9867 171.01 69.992 171.277 69.992C171.991 69.992 172.519 69.8907 172.861 69.688C173.213 69.4853 173.389 69.1387 173.389 68.648C173.389 68.264 173.239 67.9547 172.941 67.72C172.653 67.4747 172.135 67.352 171.389 67.352H169.981V69.928ZM171.549 66.376C171.741 66.376 171.927 66.344 172.109 66.28C172.29 66.216 172.45 66.1307 172.589 66.024C172.738 65.9067 172.855 65.7733 172.941 65.624C173.037 65.4747 173.085 65.3147 173.085 65.144C173.085 64.7173 172.957 64.424 172.701 64.264C172.445 64.0933 171.997 64.008 171.357 64.008C171.015 64.008 170.743 64.0133 170.541 64.024C170.349 64.0347 170.162 64.0453 169.981 64.056V66.376H171.549ZM176.557 63.592C176.962 63.3467 177.432 63.1653 177.965 63.048C178.509 62.9307 179.074 62.872 179.661 62.872C180.216 62.872 180.658 62.9467 180.989 63.096C181.33 63.2453 181.586 63.4427 181.757 63.688C181.938 63.9227 182.056 64.184 182.109 64.472C182.173 64.76 182.205 65.048 182.205 65.336C182.205 65.976 182.189 66.6 182.157 67.208C182.125 67.816 182.109 68.392 182.109 68.936C182.109 69.3307 182.125 69.704 182.157 70.056C182.189 70.408 182.248 70.7333 182.333 71.032H181.389L181.053 69.912H180.973C180.877 70.0613 180.754 70.2107 180.605 70.36C180.466 70.4987 180.296 70.6267 180.093 70.744C179.89 70.8507 179.656 70.9413 179.389 71.016C179.122 71.0907 178.818 71.128 178.477 71.128C178.136 71.128 177.816 71.0747 177.517 70.968C177.229 70.8613 176.978 70.712 176.765 70.52C176.552 70.3173 176.381 70.0773 176.253 69.8C176.136 69.5227 176.077 69.208 176.077 68.856C176.077 68.3867 176.173 67.9973 176.365 67.688C176.557 67.368 176.824 67.1173 177.165 66.936C177.517 66.744 177.933 66.6107 178.413 66.536C178.904 66.4507 179.442 66.408 180.029 66.408C180.178 66.408 180.322 66.408 180.461 66.408C180.61 66.408 180.76 66.4187 180.909 66.44C180.941 66.12 180.957 65.832 180.957 65.576C180.957 64.9893 180.84 64.5787 180.605 64.344C180.37 64.1093 179.944 63.992 179.325 63.992C179.144 63.992 178.946 64.008 178.733 64.04C178.53 64.0613 178.317 64.0987 178.093 64.152C177.88 64.1947 177.672 64.2533 177.469 64.328C177.277 64.392 177.106 64.4667 176.957 64.552L176.557 63.592ZM178.829 70.008C179.128 70.008 179.394 69.9707 179.629 69.896C179.864 69.8107 180.066 69.7093 180.237 69.592C180.408 69.464 180.546 69.3253 180.653 69.176C180.77 69.0267 180.856 68.8827 180.909 68.744V67.416C180.76 67.4053 180.605 67.4 180.445 67.4C180.296 67.3893 180.146 67.384 179.997 67.384C179.666 67.384 179.341 67.4053 179.021 67.448C178.712 67.48 178.434 67.5493 178.189 67.656C177.954 67.752 177.762 67.8907 177.613 68.072C177.474 68.2427 177.405 68.4613 177.405 68.728C177.405 69.1013 177.538 69.4107 177.805 69.656C178.072 69.8907 178.413 70.008 178.829 70.008ZM191.231 66.248L191.327 64.728H191.247L190.671 65.96L188.735 69.096H188.287L186.271 65.96L185.743 64.728H185.679L185.807 66.232V71H184.623V63H185.887L188.127 66.584L188.591 67.512H188.623L189.103 66.552L191.199 63H192.479V71H191.231V66.248ZM199.927 66.264L199.975 65.272H199.927L199.271 66.296L195.671 71H194.935V63H196.215V67.88L196.167 68.824H196.231L196.855 67.832L200.455 63H201.207V71H199.927V66.264ZM203.222 70.312C203.222 70.056 203.307 69.848 203.478 69.688C203.648 69.528 203.867 69.448 204.134 69.448C204.464 69.448 204.731 69.5653 204.934 69.8C205.147 70.0347 205.254 70.376 205.254 70.824C205.254 71.208 205.2 71.544 205.094 71.832C204.987 72.12 204.848 72.3653 204.678 72.568C204.507 72.7813 204.32 72.952 204.118 73.08C203.915 73.2187 203.712 73.32 203.51 73.384L203.11 72.76C203.494 72.6107 203.776 72.376 203.958 72.056C204.15 71.7467 204.246 71.432 204.246 71.112C204.15 71.144 204.059 71.16 203.974 71.16C203.76 71.16 203.579 71.0907 203.43 70.952C203.291 70.8027 203.222 70.5893 203.222 70.312ZM210.279 63.016C210.652 62.9947 211.042 62.968 211.447 62.936C211.863 62.904 212.375 62.888 212.983 62.888C214.039 62.888 214.796 63.0533 215.255 63.384C215.714 63.704 215.943 64.1947 215.943 64.856C215.943 65.2293 215.831 65.5973 215.607 65.96C215.394 66.312 215.036 66.5733 214.535 66.744V66.808C215.164 66.9253 215.607 67.144 215.863 67.464C216.119 67.784 216.247 68.2107 216.247 68.744C216.247 69.576 215.948 70.1787 215.351 70.552C214.754 70.9253 213.858 71.112 212.663 71.112C212.215 71.112 211.799 71.096 211.415 71.064C211.031 71.0427 210.652 71.016 210.279 70.984V63.016ZM211.559 69.928C211.762 69.9493 211.959 69.9653 212.151 69.976C212.354 69.9867 212.588 69.992 212.855 69.992C213.57 69.992 214.098 69.8907 214.439 69.688C214.791 69.4853 214.967 69.1387 214.967 68.648C214.967 68.264 214.818 67.9547 214.519 67.72C214.231 67.4747 213.714 67.352 212.967 67.352H211.559V69.928ZM213.127 66.376C213.319 66.376 213.506 66.344 213.687 66.28C213.868 66.216 214.028 66.1307 214.167 66.024C214.316 65.9067 214.434 65.7733 214.519 65.624C214.615 65.4747 214.663 65.3147 214.663 65.144C214.663 64.7173 214.535 64.424 214.279 64.264C214.023 64.0933 213.575 64.008 212.935 64.008C212.594 64.008 212.322 64.0133 212.119 64.024C211.927 64.0347 211.74 64.0453 211.559 64.056V66.376H213.127ZM217.815 67C217.815 65.6453 218.114 64.6107 218.711 63.896C219.319 63.1707 220.189 62.808 221.319 62.808C221.917 62.808 222.434 62.9093 222.871 63.112C223.319 63.304 223.687 63.5867 223.975 63.96C224.263 64.3227 224.477 64.7653 224.615 65.288C224.754 65.8 224.823 66.3707 224.823 67C224.823 68.3547 224.519 69.3947 223.911 70.12C223.314 70.8347 222.45 71.192 221.319 71.192C220.722 71.192 220.199 71.096 219.751 70.904C219.314 70.7013 218.951 70.4187 218.663 70.056C218.375 69.6827 218.162 69.24 218.023 68.728C217.885 68.2053 217.815 67.6293 217.815 67ZM219.143 67C219.143 67.4053 219.181 67.7947 219.255 68.168C219.341 68.5413 219.469 68.8667 219.639 69.144C219.81 69.4213 220.034 69.6453 220.311 69.816C220.589 69.9867 220.925 70.072 221.319 70.072C222.77 70.0827 223.495 69.0587 223.495 67C223.495 66.584 223.453 66.1893 223.367 65.816C223.293 65.4427 223.17 65.1173 222.999 64.84C222.829 64.5627 222.605 64.344 222.327 64.184C222.05 64.0133 221.714 63.928 221.319 63.928C219.869 63.9173 219.143 64.9413 219.143 67ZM227.609 67.432V66.392H228.729C228.921 66.392 229.108 66.36 229.289 66.296C229.481 66.232 229.652 66.1467 229.801 66.04C229.951 65.9227 230.068 65.7893 230.153 65.64C230.249 65.48 230.297 65.3147 230.297 65.144C230.297 64.728 230.153 64.4347 229.865 64.264C229.577 64.0933 229.145 64.008 228.569 64.008C228.153 64.008 227.769 64.072 227.417 64.2C227.076 64.328 226.809 64.4507 226.617 64.568L226.249 63.576C226.569 63.3947 226.943 63.2347 227.369 63.096C227.807 62.9573 228.324 62.888 228.921 62.888C230.692 62.888 231.577 63.544 231.577 64.856C231.577 65.2293 231.455 65.5973 231.209 65.96C230.975 66.312 230.633 66.5627 230.185 66.712V66.776C230.815 66.8933 231.252 67.1173 231.497 67.448C231.753 67.7787 231.881 68.216 231.881 68.76C231.881 69.1013 231.812 69.416 231.673 69.704C231.535 69.992 231.327 70.2427 231.049 70.456C230.772 70.6693 230.42 70.84 229.993 70.968C229.577 71.0853 229.092 71.144 228.537 71.144C227.993 71.144 227.54 71.096 227.177 71C226.825 70.904 226.505 70.7867 226.217 70.648L226.585 69.592C226.831 69.7307 227.124 69.8373 227.465 69.912C227.817 69.9867 228.196 70.024 228.601 70.024C229.252 70.024 229.748 69.912 230.089 69.688C230.431 69.464 230.601 69.1227 230.601 68.664C230.601 68.28 230.441 67.9813 230.121 67.768C229.801 67.544 229.273 67.432 228.537 67.432H227.609ZM233.904 63H234.784L235.024 63.96H235.088C235.333 63.5867 235.648 63.304 236.032 63.112C236.427 62.9093 236.875 62.808 237.376 62.808C238.443 62.808 239.237 63.1227 239.76 63.752C240.283 64.3813 240.544 65.4107 240.544 66.84C240.544 67.512 240.453 68.12 240.272 68.664C240.101 69.1973 239.856 69.6507 239.536 70.024C239.216 70.3973 238.827 70.6853 238.368 70.888C237.92 71.0907 237.419 71.192 236.864 71.192C236.469 71.192 236.155 71.1653 235.92 71.112C235.696 71.0693 235.451 70.9893 235.184 70.872V74.2H233.904V63ZM237.136 63.928C236.592 63.928 236.16 64.072 235.84 64.36C235.531 64.6373 235.312 65.064 235.184 65.64V69.608C235.376 69.7573 235.595 69.8747 235.84 69.96C236.085 70.0347 236.411 70.072 236.816 70.072C237.552 70.072 238.133 69.8 238.56 69.256C238.997 68.7013 239.216 67.8907 239.216 66.824C239.216 66.3867 239.179 65.992 239.104 65.64C239.029 65.2773 238.907 64.9733 238.736 64.728C238.576 64.472 238.363 64.2747 238.096 64.136C237.84 63.9973 237.52 63.928 237.136 63.928ZM242.432 63.592C242.837 63.3467 243.307 63.1653 243.84 63.048C244.384 62.9307 244.949 62.872 245.536 62.872C246.091 62.872 246.533 62.9467 246.864 63.096C247.205 63.2453 247.461 63.4427 247.632 63.688C247.813 63.9227 247.931 64.184 247.984 64.472C248.048 64.76 248.08 65.048 248.08 65.336C248.08 65.976 248.064 66.6 248.032 67.208C248 67.816 247.984 68.392 247.984 68.936C247.984 69.3307 248 69.704 248.032 70.056C248.064 70.408 248.123 70.7333 248.208 71.032H247.264L246.928 69.912H246.848C246.752 70.0613 246.629 70.2107 246.48 70.36C246.341 70.4987 246.171 70.6267 245.968 70.744C245.765 70.8507 245.531 70.9413 245.264 71.016C244.997 71.0907 244.693 71.128 244.352 71.128C244.011 71.128 243.691 71.0747 243.392 70.968C243.104 70.8613 242.853 70.712 242.64 70.52C242.427 70.3173 242.256 70.0773 242.128 69.8C242.011 69.5227 241.952 69.208 241.952 68.856C241.952 68.3867 242.048 67.9973 242.24 67.688C242.432 67.368 242.699 67.1173 243.04 66.936C243.392 66.744 243.808 66.6107 244.288 66.536C244.779 66.4507 245.317 66.408 245.904 66.408C246.053 66.408 246.197 66.408 246.336 66.408C246.485 66.408 246.635 66.4187 246.784 66.44C246.816 66.12 246.832 65.832 246.832 65.576C246.832 64.9893 246.715 64.5787 246.48 64.344C246.245 64.1093 245.819 63.992 245.2 63.992C245.019 63.992 244.821 64.008 244.608 64.04C244.405 64.0613 244.192 64.0987 243.968 64.152C243.755 64.1947 243.547 64.2533 243.344 64.328C243.152 64.392 242.981 64.4667 242.832 64.552L242.432 63.592ZM244.704 70.008C245.003 70.008 245.269 69.9707 245.504 69.896C245.739 69.8107 245.941 69.7093 246.112 69.592C246.283 69.464 246.421 69.3253 246.528 69.176C246.645 69.0267 246.731 68.8827 246.784 68.744V67.416C246.635 67.4053 246.48 67.4 246.32 67.4C246.171 67.3893 246.021 67.384 245.872 67.384C245.541 67.384 245.216 67.4053 244.896 67.448C244.587 67.48 244.309 67.5493 244.064 67.656C243.829 67.752 243.637 67.8907 243.488 68.072C243.349 68.2427 243.28 68.4613 243.28 68.728C243.28 69.1013 243.413 69.4107 243.68 69.656C243.947 69.8907 244.288 70.008 244.704 70.008ZM255.954 70.472C255.634 70.7067 255.255 70.8827 254.818 71C254.38 71.128 253.922 71.192 253.442 71.192C252.823 71.192 252.3 71.096 251.874 70.904C251.447 70.7013 251.095 70.4187 250.818 70.056C250.551 69.6827 250.354 69.24 250.226 68.728C250.108 68.2053 250.05 67.6293 250.05 67C250.05 65.6453 250.348 64.6107 250.946 63.896C251.543 63.1707 252.402 62.808 253.522 62.808C254.034 62.808 254.466 62.8507 254.818 62.936C255.18 63.0107 255.506 63.1227 255.794 63.272L255.426 64.376C255.18 64.2373 254.908 64.1307 254.61 64.056C254.311 63.9707 253.991 63.928 253.65 63.928C252.135 63.928 251.378 64.952 251.378 67C251.378 67.4053 251.415 67.7947 251.49 68.168C251.575 68.5307 251.708 68.856 251.89 69.144C252.082 69.4213 252.327 69.6453 252.626 69.816C252.935 69.9867 253.314 70.072 253.762 70.072C254.146 70.072 254.487 70.0133 254.786 69.896C255.095 69.7787 255.346 69.6453 255.538 69.496L255.954 70.472ZM262.57 64.12H260.058V71H258.778V64.12H256.266V63H262.57V64.12ZM55.248 87.4H54.512V91H53.232V83H54.512V86.616L55.2 86.392L57.76 83H59.152L56.672 86.216L56 86.744L56.832 87.384L59.504 91H57.92L55.248 87.4ZM60.2528 87C60.2528 85.6453 60.5514 84.6107 61.1488 83.896C61.7568 83.1707 62.6261 82.808 63.7568 82.808C64.3541 82.808 64.8714 82.9093 65.3088 83.112C65.7568 83.304 66.1248 83.5867 66.4128 83.96C66.7008 84.3227 66.9141 84.7653 67.0528 85.288C67.1914 85.8 67.2608 86.3707 67.2608 87C67.2608 88.3547 66.9568 89.3947 66.3488 90.12C65.7514 90.8347 64.8874 91.192 63.7568 91.192C63.1594 91.192 62.6368 91.096 62.1888 90.904C61.7514 90.7013 61.3888 90.4187 61.1008 90.056C60.8128 89.6827 60.5994 89.24 60.4608 88.728C60.3221 88.2053 60.2528 87.6293 60.2528 87ZM61.5807 87C61.5807 87.4053 61.6181 87.7947 61.6928 88.168C61.7781 88.5413 61.9061 88.8667 62.0768 89.144C62.2474 89.4213 62.4714 89.6453 62.7488 89.816C63.0261 89.9867 63.3621 90.072 63.7568 90.072C65.2074 90.0827 65.9328 89.0587 65.9328 87C65.9328 86.584 65.8901 86.1893 65.8048 85.816C65.7301 85.4427 65.6074 85.1173 65.4368 84.84C65.2661 84.5627 65.0421 84.344 64.7648 84.184C64.4874 84.0133 64.1514 83.928 63.7568 83.928C62.3061 83.9173 61.5807 84.9413 61.5807 87ZM74.1329 84.12H71.6209V91H70.3409V84.12H67.8289V83H74.1329V84.12ZM74.7059 87C74.7059 85.6453 75.0045 84.6107 75.6019 83.896C76.2099 83.1707 77.0792 82.808 78.2099 82.808C78.8072 82.808 79.3245 82.9093 79.7619 83.112C80.2099 83.304 80.5779 83.5867 80.8659 83.96C81.1539 84.3227 81.3672 84.7653 81.5059 85.288C81.6445 85.8 81.7139 86.3707 81.7139 87C81.7139 88.3547 81.4099 89.3947 80.8019 90.12C80.2045 90.8347 79.3405 91.192 78.2099 91.192C77.6125 91.192 77.0899 91.096 76.6419 90.904C76.2045 90.7013 75.8419 90.4187 75.5539 90.056C75.2659 89.6827 75.0525 89.24 74.9139 88.728C74.7752 88.2053 74.7059 87.6293 74.7059 87ZM76.0339 87C76.0339 87.4053 76.0712 87.7947 76.1459 88.168C76.2312 88.5413 76.3592 88.8667 76.5299 89.144C76.7005 89.4213 76.9245 89.6453 77.2019 89.816C77.4792 89.9867 77.8152 90.072 78.2099 90.072C79.6605 90.0827 80.3859 89.0587 80.3859 87C80.3859 86.584 80.3432 86.1893 80.2579 85.816C80.1832 85.4427 80.0605 85.1173 79.8899 84.84C79.7192 84.5627 79.4952 84.344 79.2179 84.184C78.9405 84.0133 78.6045 83.928 78.2099 83.928C76.7592 83.9173 76.0339 84.9413 76.0339 87ZM83.732 83H84.612L84.852 83.96H84.916C85.1613 83.5867 85.476 83.304 85.86 83.112C86.2547 82.9093 86.7027 82.808 87.204 82.808C88.2707 82.808 89.0653 83.1227 89.588 83.752C90.1107 84.3813 90.372 85.4107 90.372 86.84C90.372 87.512 90.2813 88.12 90.1 88.664C89.9293 89.1973 89.684 89.6507 89.364 90.024C89.044 90.3973 88.6547 90.6853 88.196 90.888C87.748 91.0907 87.2467 91.192 86.692 91.192C86.2973 91.192 85.9827 91.1653 85.748 91.112C85.524 91.0693 85.2787 90.9893 85.012 90.872V94.2H83.732V83ZM86.964 83.928C86.42 83.928 85.988 84.072 85.668 84.36C85.3587 84.6373 85.14 85.064 85.012 85.64V89.608C85.204 89.7573 85.4227 89.8747 85.668 89.96C85.9133 90.0347 86.2387 90.072 86.644 90.072C87.38 90.072 87.9613 89.8 88.388 89.256C88.8253 88.7013 89.044 87.8907 89.044 86.824C89.044 86.3867 89.0067 85.992 88.932 85.64C88.8573 85.2773 88.7347 84.9733 88.564 84.728C88.404 84.472 88.1907 84.2747 87.924 84.136C87.668 83.9973 87.348 83.928 86.964 83.928ZM93.6683 89.88C94.0629 89.944 94.4416 89.976 94.8043 89.976C95.4763 89.976 95.9456 89.848 96.2123 89.592C96.4789 89.3253 96.6123 88.952 96.6123 88.472C96.6123 88.0453 96.4789 87.6933 96.2123 87.416C95.9563 87.1387 95.5029 87 94.8523 87C94.6709 87 94.4736 87.0053 94.2603 87.016C94.0469 87.0267 93.8496 87.0587 93.6683 87.112V89.88ZM93.6683 86.056C93.9243 86.0133 94.1696 85.9867 94.4043 85.976C94.6389 85.9547 94.8629 85.944 95.0763 85.944C95.6203 85.944 96.0736 86.008 96.4363 86.136C96.8096 86.2533 97.1083 86.4187 97.3323 86.632C97.5563 86.8453 97.7109 87.1013 97.7963 87.4C97.8923 87.688 97.9403 87.9973 97.9403 88.328C97.9403 89.2987 97.6683 90.0027 97.1243 90.44C96.5909 90.8773 95.7216 91.096 94.5163 91.096C93.8336 91.096 93.1243 91.064 92.3883 91V83H93.6683V86.056ZM99.2043 83H100.484V91H99.2043V83ZM105.047 86.904L102.359 83H103.927L105.447 85.208L105.895 86.12L106.359 85.208L107.911 83H109.351L106.647 86.84L109.511 91H107.991L106.295 88.568L105.815 87.608L105.319 88.568L103.591 91H102.167L105.047 86.904ZM114.565 87C114.565 85.6453 114.864 84.6107 115.461 83.896C116.069 83.1707 116.939 82.808 118.069 82.808C118.667 82.808 119.184 82.9093 119.621 83.112C120.069 83.304 120.437 83.5867 120.725 83.96C121.013 84.3227 121.227 84.7653 121.365 85.288C121.504 85.8 121.573 86.3707 121.573 87C121.573 88.3547 121.269 89.3947 120.661 90.12C120.064 90.8347 119.2 91.192 118.069 91.192C117.472 91.192 116.949 91.096 116.501 90.904C116.064 90.7013 115.701 90.4187 115.413 90.056C115.125 89.6827 114.912 89.24 114.773 88.728C114.635 88.2053 114.565 87.6293 114.565 87ZM115.893 87C115.893 87.4053 115.931 87.7947 116.005 88.168C116.091 88.5413 116.219 88.8667 116.389 89.144C116.56 89.4213 116.784 89.6453 117.061 89.816C117.339 89.9867 117.675 90.072 118.069 90.072C119.52 90.0827 120.245 89.0587 120.245 87C120.245 86.584 120.203 86.1893 120.117 85.816C120.043 85.4427 119.92 85.1173 119.749 84.84C119.579 84.5627 119.355 84.344 119.077 84.184C118.8 84.0133 118.464 83.928 118.069 83.928C116.619 83.9173 115.893 84.9413 115.893 87ZM128.445 84.12H125.933V91H124.653V84.12H122.141V83H128.445V84.12ZM140.122 87.624C140.122 88.1147 140.047 88.5787 139.898 89.016C139.749 89.4427 139.53 89.8213 139.242 90.152C138.954 90.472 138.597 90.728 138.17 90.92C137.743 91.1013 137.258 91.192 136.714 91.192C136.181 91.192 135.701 91.1067 135.274 90.936C134.847 90.7653 134.479 90.5147 134.17 90.184C133.861 89.8427 133.621 89.4267 133.45 88.936C133.29 88.4453 133.21 87.88 133.21 87.24C133.21 86.184 133.343 85.2133 133.61 84.328C133.887 83.432 134.266 82.6533 134.746 81.992C135.226 81.3307 135.791 80.7973 136.442 80.392C137.103 79.976 137.818 79.7147 138.586 79.608L138.858 80.632C138.261 80.7387 137.717 80.9413 137.226 81.24C136.735 81.5387 136.303 81.9067 135.93 82.344C135.567 82.7813 135.269 83.272 135.034 83.816C134.799 84.36 134.639 84.92 134.554 85.496C134.725 85.208 135.013 84.9467 135.418 84.712C135.823 84.4667 136.319 84.344 136.906 84.344C137.909 84.344 138.693 84.632 139.258 85.208C139.834 85.784 140.122 86.5893 140.122 87.624ZM138.794 87.752C138.794 86.9947 138.618 86.424 138.266 86.04C137.914 85.656 137.37 85.464 136.634 85.464C136.111 85.464 135.658 85.592 135.274 85.848C134.901 86.104 134.639 86.392 134.49 86.712C134.469 86.8613 134.458 86.984 134.458 87.08C134.458 87.176 134.458 87.2827 134.458 87.4C134.458 87.7307 134.501 88.056 134.586 88.376C134.682 88.696 134.826 88.984 135.018 89.24C135.21 89.4853 135.445 89.688 135.722 89.848C136.01 89.9973 136.346 90.072 136.73 90.072C137.039 90.072 137.317 90.0133 137.562 89.896C137.818 89.7787 138.037 89.6187 138.218 89.416C138.399 89.2133 138.538 88.968 138.634 88.68C138.741 88.392 138.794 88.0827 138.794 87.752ZM153.538 93.032H152.674L152.434 91H146.418L146.178 93.032H145.314V89.88H146.258C146.344 89.7627 146.456 89.5547 146.594 89.256C146.733 88.9467 146.866 88.52 146.994 87.976C147.133 87.4213 147.25 86.7387 147.346 85.928C147.453 85.1067 147.517 84.1307 147.538 83H152.37V89.88H153.538V93.032ZM151.09 89.88V84.12H148.69C148.669 84.568 148.632 85.0587 148.578 85.592C148.525 86.1147 148.45 86.6427 148.354 87.176C148.269 87.6987 148.157 88.1947 148.018 88.664C147.88 89.1333 147.72 89.5387 147.538 89.88H151.09ZM154.675 87C154.675 85.6453 154.973 84.6107 155.571 83.896C156.179 83.1707 157.048 82.808 158.179 82.808C158.776 82.808 159.293 82.9093 159.731 83.112C160.179 83.304 160.547 83.5867 160.835 83.96C161.123 84.3227 161.336 84.7653 161.475 85.288C161.613 85.8 161.683 86.3707 161.683 87C161.683 88.3547 161.379 89.3947 160.771 90.12C160.173 90.8347 159.309 91.192 158.179 91.192C157.581 91.192 157.059 91.096 156.611 90.904C156.173 90.7013 155.811 90.4187 155.523 90.056C155.235 89.6827 155.021 89.24 154.883 88.728C154.744 88.2053 154.675 87.6293 154.675 87ZM156.003 87C156.003 87.4053 156.04 87.7947 156.115 88.168C156.2 88.5413 156.328 88.8667 156.499 89.144C156.669 89.4213 156.893 89.6453 157.171 89.816C157.448 89.9867 157.784 90.072 158.179 90.072C159.629 90.0827 160.355 89.0587 160.355 87C160.355 86.584 160.312 86.1893 160.227 85.816C160.152 85.4427 160.029 85.1173 159.859 84.84C159.688 84.5627 159.464 84.344 159.187 84.184C158.909 84.0133 158.573 83.928 158.179 83.928C156.728 83.9173 156.003 84.9413 156.003 87ZM168.462 89.816H170.702V82.072L170.862 81.128L170.222 81.88L168.462 83.144L167.854 82.328L171.374 79.608H171.95V89.816H174.142V91H168.462V89.816ZM176.541 88.328C176.541 87.656 176.717 87.0747 177.069 86.584C177.421 86.0827 177.97 85.6293 178.717 85.224C178.45 85.064 178.2 84.8987 177.965 84.728C177.741 84.5467 177.538 84.344 177.357 84.12C177.186 83.896 177.048 83.6453 176.941 83.368C176.845 83.0907 176.797 82.7707 176.797 82.408C176.797 81.992 176.866 81.6133 177.005 81.272C177.154 80.9307 177.362 80.6373 177.629 80.392C177.906 80.1467 178.232 79.9547 178.605 79.816C178.989 79.6773 179.421 79.608 179.901 79.608C180.349 79.608 180.754 79.672 181.117 79.8C181.48 79.928 181.784 80.104 182.029 80.328C182.285 80.552 182.482 80.8187 182.621 81.128C182.76 81.4373 182.829 81.7787 182.829 82.152C182.829 82.76 182.69 83.2987 182.413 83.768C182.136 84.2267 181.677 84.68 181.037 85.128C181.314 85.288 181.576 85.464 181.821 85.656C182.077 85.848 182.296 86.0613 182.477 86.296C182.669 86.5307 182.818 86.7973 182.925 87.096C183.032 87.384 183.085 87.7147 183.085 88.088C183.085 88.5467 183.01 88.968 182.861 89.352C182.712 89.7253 182.493 90.0507 182.205 90.328C181.917 90.5947 181.565 90.808 181.149 90.968C180.733 91.1173 180.258 91.192 179.725 91.192C179.213 91.192 178.76 91.1173 178.365 90.968C177.97 90.8187 177.634 90.616 177.357 90.36C177.09 90.104 176.888 89.8053 176.749 89.464C176.61 89.112 176.541 88.7333 176.541 88.328ZM181.837 88.168C181.837 87.848 181.773 87.5707 181.645 87.336C181.517 87.0907 181.346 86.872 181.133 86.68C180.93 86.4773 180.696 86.296 180.429 86.136C180.162 85.976 179.885 85.8213 179.597 85.672C178.946 86.0347 178.482 86.44 178.205 86.888C177.928 87.336 177.789 87.7627 177.789 88.168C177.789 88.424 177.832 88.6693 177.917 88.904C178.002 89.1387 178.13 89.3413 178.301 89.512C178.472 89.6827 178.68 89.8213 178.925 89.928C179.181 90.024 179.474 90.072 179.805 90.072C180.072 90.072 180.328 90.0347 180.573 89.96C180.818 89.8747 181.032 89.7573 181.213 89.608C181.405 89.448 181.554 89.2507 181.661 89.016C181.778 88.7707 181.837 88.488 181.837 88.168ZM178.045 82.376C178.045 82.6747 178.104 82.9413 178.221 83.176C178.338 83.4 178.493 83.6027 178.685 83.784C178.888 83.9653 179.117 84.136 179.373 84.296C179.629 84.4453 179.896 84.5893 180.173 84.728C180.653 84.3547 181.005 83.9867 181.229 83.624C181.464 83.2613 181.581 82.8613 181.581 82.424C181.581 81.88 181.41 81.464 181.069 81.176C180.738 80.8773 180.338 80.728 179.869 80.728C179.581 80.728 179.325 80.776 179.101 80.872C178.877 80.968 178.685 81.0907 178.525 81.24C178.365 81.3893 178.242 81.5653 178.157 81.768C178.082 81.96 178.045 82.1627 178.045 82.376ZM193.974 84.12H191.654C191.622 84.568 191.59 85.0533 191.558 85.576C191.526 86.088 191.478 86.6053 191.414 87.128C191.35 87.64 191.264 88.136 191.158 88.616C191.051 89.0853 190.912 89.5013 190.742 89.864C190.582 90.2267 190.379 90.52 190.134 90.744C189.899 90.9573 189.616 91.064 189.286 91.064C189.083 91.064 188.907 91.0533 188.758 91.032C188.608 91.0107 188.475 90.9733 188.357 90.92L188.55 89.848C188.678 89.8907 188.816 89.912 188.965 89.912C189.179 89.912 189.371 89.8213 189.542 89.64C189.712 89.4587 189.862 89.1173 189.99 88.616C190.118 88.104 190.224 87.4 190.31 86.504C190.395 85.608 190.454 84.44 190.486 83H195.254V91H193.974V84.12ZM203.556 90.36C203.236 90.616 202.831 90.8187 202.34 90.968C201.86 91.1173 201.348 91.192 200.804 91.192C200.196 91.192 199.668 91.096 199.22 90.904C198.772 90.7013 198.404 90.4187 198.116 90.056C197.828 89.6827 197.615 89.24 197.476 88.728C197.338 88.216 197.268 87.64 197.268 87C197.268 85.6347 197.572 84.5947 198.18 83.88C198.788 83.1653 199.658 82.808 200.788 82.808C201.151 82.808 201.514 82.8507 201.876 82.936C202.239 83.0107 202.564 83.16 202.852 83.384C203.14 83.608 203.375 83.928 203.556 84.344C203.738 84.7493 203.828 85.288 203.828 85.96C203.828 86.312 203.796 86.7013 203.732 87.128H198.596C198.596 87.5973 198.644 88.0133 198.74 88.376C198.836 88.7387 198.986 89.048 199.188 89.304C199.391 89.5493 199.652 89.7413 199.972 89.88C200.303 90.008 200.703 90.072 201.172 90.072C201.535 90.072 201.898 90.008 202.26 89.88C202.623 89.752 202.895 89.6027 203.076 89.432L203.556 90.36ZM200.804 83.928C200.175 83.928 199.668 84.0933 199.284 84.424C198.911 84.7547 198.687 85.32 198.612 86.12H202.58C202.58 85.3093 202.426 84.744 202.116 84.424C201.807 84.0933 201.37 83.928 200.804 83.928ZM210.945 84.12H208.433V91H207.153V84.12H204.641V83H210.945V84.12ZM210.518 90.264C210.518 89.976 210.598 89.752 210.758 89.592C210.929 89.4213 211.153 89.336 211.43 89.336C211.718 89.336 211.948 89.4213 212.118 89.592C212.289 89.752 212.374 89.976 212.374 90.264C212.374 90.5413 212.289 90.7653 212.118 90.936C211.948 91.1067 211.718 91.192 211.43 91.192C211.153 91.192 210.929 91.1067 210.758 90.936C210.598 90.7653 210.518 90.5413 210.518 90.264ZM225.99 93.064H225.078L224.838 91H216.982L216.742 93.064H215.814V89.816H216.95C217.036 89.6987 217.164 89.4267 217.334 89C217.516 88.5627 217.692 87.944 217.862 87.144C218.044 86.3333 218.204 85.3253 218.342 84.12C218.481 82.904 218.55 81.464 218.55 79.8H224.534V89.816H225.99V93.064ZM223.206 89.816V80.984H219.798C219.766 82.1573 219.702 83.2133 219.606 84.152C219.521 85.0907 219.414 85.9227 219.286 86.648C219.158 87.3627 219.014 87.9813 218.854 88.504C218.694 89.0267 218.529 89.464 218.358 89.816H223.206ZM233.135 90.36C232.815 90.616 232.409 90.8187 231.919 90.968C231.439 91.1173 230.927 91.192 230.383 91.192C229.775 91.192 229.247 91.096 228.799 90.904C228.351 90.7013 227.983 90.4187 227.695 90.056C227.407 89.6827 227.193 89.24 227.055 88.728C226.916 88.216 226.847 87.64 226.847 87C226.847 85.6347 227.151 84.5947 227.759 83.88C228.367 83.1653 229.236 82.808 230.367 82.808C230.729 82.808 231.092 82.8507 231.455 82.936C231.817 83.0107 232.143 83.16 232.431 83.384C232.719 83.608 232.953 83.928 233.135 84.344C233.316 84.7493 233.407 85.288 233.407 85.96C233.407 86.312 233.375 86.7013 233.311 87.128H228.174C228.174 87.5973 228.223 88.0133 228.319 88.376C228.415 88.7387 228.564 89.048 228.767 89.304C228.969 89.5493 229.231 89.7413 229.551 89.88C229.881 90.008 230.281 90.072 230.751 90.072C231.113 90.072 231.476 90.008 231.839 89.88C232.201 89.752 232.473 89.6027 232.655 89.432L233.135 90.36ZM230.383 83.928C229.753 83.928 229.247 84.0933 228.863 84.424C228.489 84.7547 228.265 85.32 228.191 86.12H232.159C232.159 85.3093 232.004 84.744 231.695 84.424C231.385 84.0933 230.948 83.928 230.383 83.928ZM240.524 84.12H238.012V91H236.732V84.12H234.22V83H240.524V84.12ZM246.787 86.264L246.835 85.272H246.787L246.131 86.296L242.531 91H241.795V83H243.075V87.88L243.027 88.824H243.091L243.715 87.832L247.315 83H248.067V91H246.787V86.264ZM60.304 113.032H59.44L59.2 111H53.184L52.944 113.032H52.08V109.88H53.024C53.1093 109.763 53.2213 109.555 53.36 109.256C53.4987 108.947 53.632 108.52 53.76 107.976C53.8987 107.421 54.016 106.739 54.112 105.928C54.2187 105.107 54.2827 104.131 54.304 103H59.136V109.88H60.304V113.032ZM57.856 109.88V104.12H55.456C55.4347 104.568 55.3973 105.059 55.344 105.592C55.2907 106.115 55.216 106.643 55.12 107.176C55.0347 107.699 54.9227 108.195 54.784 108.664C54.6453 109.133 54.4853 109.539 54.304 109.88H57.856ZM61.4403 107C61.4403 105.645 61.7389 104.611 62.3363 103.896C62.9443 103.171 63.8136 102.808 64.9443 102.808C65.5416 102.808 66.0589 102.909 66.4963 103.112C66.9443 103.304 67.3123 103.587 67.6003 103.96C67.8883 104.323 68.1016 104.765 68.2403 105.288C68.3789 105.8 68.4483 106.371 68.4483 107C68.4483 108.355 68.1443 109.395 67.5363 110.12C66.9389 110.835 66.0749 111.192 64.9443 111.192C64.3469 111.192 63.8243 111.096 63.3763 110.904C62.9389 110.701 62.5763 110.419 62.2883 110.056C62.0003 109.683 61.7869 109.24 61.6483 108.728C61.5096 108.205 61.4403 107.629 61.4403 107ZM62.7682 107C62.7682 107.405 62.8056 107.795 62.8803 108.168C62.9656 108.541 63.0936 108.867 63.2643 109.144C63.4349 109.421 63.6589 109.645 63.9363 109.816C64.2136 109.987 64.5496 110.072 64.9443 110.072C66.3949 110.083 67.1203 109.059 67.1203 107C67.1203 106.584 67.0776 106.189 66.9923 105.816C66.9176 105.443 66.7949 105.117 66.6243 104.84C66.4536 104.563 66.2296 104.344 65.9523 104.184C65.6749 104.013 65.3389 103.928 64.9443 103.928C63.4936 103.917 62.7682 104.941 62.7682 107ZM81.372 107.624C81.372 108.115 81.2973 108.579 81.148 109.016C80.9987 109.443 80.78 109.821 80.492 110.152C80.204 110.472 79.8467 110.728 79.42 110.92C78.9933 111.101 78.508 111.192 77.964 111.192C77.4307 111.192 76.9507 111.107 76.524 110.936C76.0973 110.765 75.7293 110.515 75.42 110.184C75.1107 109.843 74.8707 109.427 74.7 108.936C74.54 108.445 74.46 107.88 74.46 107.24C74.46 106.184 74.5933 105.213 74.86 104.328C75.1373 103.432 75.516 102.653 75.996 101.992C76.476 101.331 77.0413 100.797 77.692 100.392C78.3533 99.976 79.068 99.7147 79.836 99.608L80.108 100.632C79.5107 100.739 78.9667 100.941 78.476 101.24C77.9853 101.539 77.5533 101.907 77.18 102.344C76.8173 102.781 76.5187 103.272 76.284 103.816C76.0493 104.36 75.8893 104.92 75.804 105.496C75.9747 105.208 76.2627 104.947 76.668 104.712C77.0733 104.467 77.5693 104.344 78.156 104.344C79.1587 104.344 79.9427 104.632 80.508 105.208C81.084 105.784 81.372 106.589 81.372 107.624ZM80.044 107.752C80.044 106.995 79.868 106.424 79.516 106.04C79.164 105.656 78.62 105.464 77.884 105.464C77.3613 105.464 76.908 105.592 76.524 105.848C76.1507 106.104 75.8893 106.392 75.74 106.712C75.7187 106.861 75.708 106.984 75.708 107.08C75.708 107.176 75.708 107.283 75.708 107.4C75.708 107.731 75.7507 108.056 75.836 108.376C75.932 108.696 76.076 108.984 76.268 109.24C76.46 109.485 76.6947 109.688 76.972 109.848C77.26 109.997 77.596 110.072 77.98 110.072C78.2893 110.072 78.5667 110.013 78.812 109.896C79.068 109.779 79.2867 109.619 79.468 109.416C79.6493 109.213 79.788 108.968 79.884 108.68C79.9907 108.392 80.044 108.083 80.044 107.752ZM92.0204 104.12H89.7004C89.6684 104.568 89.6364 105.053 89.6044 105.576C89.5724 106.088 89.5244 106.605 89.4604 107.128C89.3964 107.64 89.311 108.136 89.2044 108.616C89.0977 109.085 88.959 109.501 88.7884 109.864C88.6284 110.227 88.4257 110.52 88.1804 110.744C87.9457 110.957 87.663 111.064 87.3324 111.064C87.1297 111.064 86.9537 111.053 86.8044 111.032C86.655 111.011 86.5217 110.973 86.4044 110.92L86.5964 109.848C86.7244 109.891 86.863 109.912 87.0124 109.912C87.2257 109.912 87.4177 109.821 87.5884 109.64C87.759 109.459 87.9084 109.117 88.0364 108.616C88.1644 108.104 88.271 107.4 88.3564 106.504C88.4417 105.608 88.5004 104.44 88.5324 103H93.3004V111H92.0204V104.12ZM101.603 110.36C101.283 110.616 100.878 110.819 100.387 110.968C99.9073 111.117 99.3953 111.192 98.8513 111.192C98.2433 111.192 97.7153 111.096 97.2673 110.904C96.8193 110.701 96.4513 110.419 96.1633 110.056C95.8753 109.683 95.6619 109.24 95.5233 108.728C95.3846 108.216 95.3153 107.64 95.3153 107C95.3153 105.635 95.6193 104.595 96.2273 103.88C96.8353 103.165 97.7046 102.808 98.8353 102.808C99.1979 102.808 99.5606 102.851 99.9233 102.936C100.286 103.011 100.611 103.16 100.899 103.384C101.187 103.608 101.422 103.928 101.603 104.344C101.785 104.749 101.875 105.288 101.875 105.96C101.875 106.312 101.843 106.701 101.779 107.128H96.6432C96.6432 107.597 96.6913 108.013 96.7873 108.376C96.8833 108.739 97.0326 109.048 97.2353 109.304C97.4379 109.549 97.6993 109.741 98.0193 109.88C98.3499 110.008 98.7499 110.072 99.2193 110.072C99.5819 110.072 99.9446 110.008 100.307 109.88C100.67 109.752 100.942 109.603 101.123 109.432L101.603 110.36ZM98.8513 103.928C98.2219 103.928 97.7153 104.093 97.3313 104.424C96.9579 104.755 96.7339 105.32 96.6593 106.12H100.627C100.627 105.309 100.473 104.744 100.163 104.424C99.8539 104.093 99.4166 103.928 98.8513 103.928ZM108.992 104.12H106.48V111H105.2V104.12H102.688V103H108.992V104.12ZM114.029 103H114.909L115.149 103.96H115.213C115.458 103.587 115.773 103.304 116.157 103.112C116.552 102.909 117 102.808 117.501 102.808C118.568 102.808 119.362 103.123 119.885 103.752C120.408 104.381 120.669 105.411 120.669 106.84C120.669 107.512 120.578 108.12 120.397 108.664C120.226 109.197 119.981 109.651 119.661 110.024C119.341 110.397 118.952 110.685 118.493 110.888C118.045 111.091 117.544 111.192 116.989 111.192C116.594 111.192 116.28 111.165 116.045 111.112C115.821 111.069 115.576 110.989 115.309 110.872V114.2H114.029V103ZM117.261 103.928C116.717 103.928 116.285 104.072 115.965 104.36C115.656 104.637 115.437 105.064 115.309 105.64V109.608C115.501 109.757 115.72 109.875 115.965 109.96C116.21 110.035 116.536 110.072 116.941 110.072C117.677 110.072 118.258 109.8 118.685 109.256C119.122 108.701 119.341 107.891 119.341 106.824C119.341 106.387 119.304 105.992 119.229 105.64C119.154 105.277 119.032 104.973 118.861 104.728C118.701 104.472 118.488 104.275 118.221 104.136C117.965 103.997 117.645 103.928 117.261 103.928ZM122.557 103.592C122.962 103.347 123.432 103.165 123.965 103.048C124.509 102.931 125.074 102.872 125.661 102.872C126.216 102.872 126.658 102.947 126.989 103.096C127.33 103.245 127.586 103.443 127.757 103.688C127.938 103.923 128.056 104.184 128.109 104.472C128.173 104.76 128.205 105.048 128.205 105.336C128.205 105.976 128.189 106.6 128.157 107.208C128.125 107.816 128.109 108.392 128.109 108.936C128.109 109.331 128.125 109.704 128.157 110.056C128.189 110.408 128.248 110.733 128.333 111.032H127.389L127.053 109.912H126.973C126.877 110.061 126.754 110.211 126.605 110.36C126.466 110.499 126.296 110.627 126.093 110.744C125.89 110.851 125.656 110.941 125.389 111.016C125.122 111.091 124.818 111.128 124.477 111.128C124.136 111.128 123.816 111.075 123.517 110.968C123.229 110.861 122.978 110.712 122.765 110.52C122.552 110.317 122.381 110.077 122.253 109.8C122.136 109.523 122.077 109.208 122.077 108.856C122.077 108.387 122.173 107.997 122.365 107.688C122.557 107.368 122.824 107.117 123.165 106.936C123.517 106.744 123.933 106.611 124.413 106.536C124.904 106.451 125.442 106.408 126.029 106.408C126.178 106.408 126.322 106.408 126.461 106.408C126.61 106.408 126.76 106.419 126.909 106.44C126.941 106.12 126.957 105.832 126.957 105.576C126.957 104.989 126.84 104.579 126.605 104.344C126.37 104.109 125.944 103.992 125.325 103.992C125.144 103.992 124.946 104.008 124.733 104.04C124.53 104.061 124.317 104.099 124.093 104.152C123.88 104.195 123.672 104.253 123.469 104.328C123.277 104.392 123.106 104.467 122.957 104.552L122.557 103.592ZM124.829 110.008C125.128 110.008 125.394 109.971 125.629 109.896C125.864 109.811 126.066 109.709 126.237 109.592C126.408 109.464 126.546 109.325 126.653 109.176C126.77 109.027 126.856 108.883 126.909 108.744V107.416C126.76 107.405 126.605 107.4 126.445 107.4C126.296 107.389 126.146 107.384 125.997 107.384C125.666 107.384 125.341 107.405 125.021 107.448C124.712 107.48 124.434 107.549 124.189 107.656C123.954 107.752 123.762 107.891 123.613 108.072C123.474 108.243 123.405 108.461 123.405 108.728C123.405 109.101 123.538 109.411 123.805 109.656C124.072 109.891 124.413 110.008 124.829 110.008ZM131.391 107.432V106.392H132.511C132.703 106.392 132.889 106.36 133.071 106.296C133.263 106.232 133.433 106.147 133.583 106.04C133.732 105.923 133.849 105.789 133.935 105.64C134.031 105.48 134.079 105.315 134.079 105.144C134.079 104.728 133.935 104.435 133.647 104.264C133.359 104.093 132.927 104.008 132.351 104.008C131.935 104.008 131.551 104.072 131.199 104.2C130.857 104.328 130.591 104.451 130.399 104.568L130.031 103.576C130.351 103.395 130.724 103.235 131.151 103.096C131.588 102.957 132.105 102.888 132.703 102.888C134.473 102.888 135.359 103.544 135.359 104.856C135.359 105.229 135.236 105.597 134.991 105.96C134.756 106.312 134.415 106.563 133.967 106.712V106.776C134.596 106.893 135.033 107.117 135.279 107.448C135.535 107.779 135.663 108.216 135.663 108.76C135.663 109.101 135.593 109.416 135.455 109.704C135.316 109.992 135.108 110.243 134.831 110.456C134.553 110.669 134.201 110.84 133.775 110.968C133.359 111.085 132.873 111.144 132.319 111.144C131.775 111.144 131.321 111.096 130.959 111C130.607 110.904 130.287 110.787 129.999 110.648L130.367 109.592C130.612 109.731 130.905 109.837 131.247 109.912C131.599 109.987 131.977 110.024 132.383 110.024C133.033 110.024 133.529 109.912 133.871 109.688C134.212 109.464 134.383 109.123 134.383 108.664C134.383 108.28 134.223 107.981 133.903 107.768C133.583 107.544 133.055 107.432 132.319 107.432H131.391ZM144.293 106.248L144.389 104.728H144.309L143.733 105.96L141.797 109.096H141.349L139.333 105.96L138.805 104.728H138.741L138.869 106.232V111H137.685V103H138.949L141.189 106.584L141.653 107.512H141.685L142.165 106.552L144.261 103H145.541V111H144.293V106.248ZM153.838 110.36C153.518 110.616 153.112 110.819 152.622 110.968C152.142 111.117 151.63 111.192 151.086 111.192C150.478 111.192 149.95 111.096 149.502 110.904C149.054 110.701 148.686 110.419 148.398 110.056C148.11 109.683 147.896 109.24 147.758 108.728C147.619 108.216 147.55 107.64 147.55 107C147.55 105.635 147.854 104.595 148.462 103.88C149.07 103.165 149.939 102.808 151.07 102.808C151.432 102.808 151.795 102.851 152.158 102.936C152.52 103.011 152.846 103.16 153.134 103.384C153.422 103.608 153.656 103.928 153.838 104.344C154.019 104.749 154.11 105.288 154.11 105.96C154.11 106.312 154.078 106.701 154.014 107.128H148.878C148.878 107.597 148.926 108.013 149.022 108.376C149.118 108.739 149.267 109.048 149.47 109.304C149.672 109.549 149.934 109.741 150.254 109.88C150.584 110.008 150.984 110.072 151.454 110.072C151.816 110.072 152.179 110.008 152.542 109.88C152.904 109.752 153.176 109.603 153.358 109.432L153.838 110.36ZM151.086 103.928C150.456 103.928 149.95 104.093 149.566 104.424C149.192 104.755 148.968 105.32 148.894 106.12H152.862C152.862 105.309 152.707 104.744 152.398 104.424C152.088 104.093 151.651 103.928 151.086 103.928ZM166.587 113.032H165.723L165.483 111H156.123V103H157.403V109.88H160.139V103H161.419V109.88H164.155V103H165.435V109.88H166.587V113.032ZM168.042 103.592C168.447 103.347 168.916 103.165 169.45 103.048C169.994 102.931 170.559 102.872 171.146 102.872C171.7 102.872 172.143 102.947 172.474 103.096C172.815 103.245 173.071 103.443 173.242 103.688C173.423 103.923 173.54 104.184 173.594 104.472C173.658 104.76 173.69 105.048 173.69 105.336C173.69 105.976 173.674 106.6 173.642 107.208C173.61 107.816 173.594 108.392 173.594 108.936C173.594 109.331 173.61 109.704 173.642 110.056C173.674 110.408 173.732 110.733 173.818 111.032H172.874L172.538 109.912H172.458C172.362 110.061 172.239 110.211 172.09 110.36C171.951 110.499 171.78 110.627 171.578 110.744C171.375 110.851 171.14 110.941 170.874 111.016C170.607 111.091 170.303 111.128 169.962 111.128C169.62 111.128 169.3 111.075 169.002 110.968C168.714 110.861 168.463 110.712 168.25 110.52C168.036 110.317 167.866 110.077 167.738 109.8C167.62 109.523 167.562 109.208 167.562 108.856C167.562 108.387 167.658 107.997 167.85 107.688C168.042 107.368 168.308 107.117 168.65 106.936C169.002 106.744 169.418 106.611 169.898 106.536C170.388 106.451 170.927 106.408 171.514 106.408C171.663 106.408 171.807 106.408 171.946 106.408C172.095 106.408 172.244 106.419 172.394 106.44C172.426 106.12 172.442 105.832 172.442 105.576C172.442 104.989 172.324 104.579 172.09 104.344C171.855 104.109 171.428 103.992 170.81 103.992C170.628 103.992 170.431 104.008 170.218 104.04C170.015 104.061 169.802 104.099 169.578 104.152C169.364 104.195 169.156 104.253 168.954 104.328C168.762 104.392 168.591 104.467 168.442 104.552L168.042 103.592ZM170.314 110.008C170.612 110.008 170.879 109.971 171.114 109.896C171.348 109.811 171.551 109.709 171.722 109.592C171.892 109.464 172.031 109.325 172.138 109.176C172.255 109.027 172.34 108.883 172.394 108.744V107.416C172.244 107.405 172.09 107.4 171.93 107.4C171.78 107.389 171.631 107.384 171.482 107.384C171.151 107.384 170.826 107.405 170.506 107.448C170.196 107.48 169.919 107.549 169.674 107.656C169.439 107.752 169.247 107.891 169.098 108.072C168.959 108.243 168.89 108.461 168.89 108.728C168.89 109.101 169.023 109.411 169.289 109.656C169.556 109.891 169.898 110.008 170.314 110.008ZM182.315 111.192C181.739 111.192 181.243 111.107 180.827 110.936C180.422 110.755 180.086 110.504 179.819 110.184C179.563 109.853 179.366 109.459 179.227 109C179.099 108.531 179.019 108.019 178.987 107.464H177.387V111H176.107V103H177.387V106.344H179.003C179.088 105.203 179.398 104.328 179.931 103.72C180.475 103.112 181.28 102.808 182.347 102.808C182.934 102.808 183.43 102.909 183.835 103.112C184.251 103.304 184.587 103.587 184.843 103.96C185.11 104.323 185.302 104.765 185.419 105.288C185.536 105.8 185.595 106.371 185.595 107C185.595 108.355 185.323 109.395 184.779 110.12C184.246 110.835 183.424 111.192 182.315 111.192ZM180.251 107C180.251 107.416 180.283 107.811 180.347 108.184C180.411 108.557 180.523 108.888 180.683 109.176C180.843 109.453 181.056 109.672 181.323 109.832C181.6 109.992 181.942 110.072 182.347 110.072C183.03 110.072 183.52 109.827 183.819 109.336C184.118 108.835 184.267 108.056 184.267 107C184.267 106.584 184.235 106.189 184.171 105.816C184.118 105.443 184.016 105.117 183.867 104.84C183.718 104.552 183.52 104.328 183.275 104.168C183.03 104.008 182.715 103.928 182.331 103.928C181.595 103.928 181.062 104.179 180.731 104.68C180.411 105.171 180.251 105.944 180.251 107ZM192.461 104.12H189.949V111H188.669V104.12H186.157V103H192.461V104.12ZM198.938 110.472C198.618 110.707 198.239 110.883 197.802 111C197.365 111.128 196.906 111.192 196.426 111.192C195.807 111.192 195.285 111.096 194.858 110.904C194.431 110.701 194.079 110.419 193.802 110.056C193.535 109.683 193.338 109.24 193.21 108.728C193.093 108.205 193.034 107.629 193.034 107C193.034 105.645 193.333 104.611 193.93 103.896C194.527 103.171 195.386 102.808 196.506 102.808C197.018 102.808 197.45 102.851 197.802 102.936C198.165 103.011 198.49 103.123 198.778 103.272L198.41 104.376C198.165 104.237 197.893 104.131 197.594 104.056C197.295 103.971 196.975 103.928 196.634 103.928C195.119 103.928 194.362 104.952 194.362 107C194.362 107.405 194.399 107.795 194.474 108.168C194.559 108.531 194.693 108.856 194.874 109.144C195.066 109.421 195.311 109.645 195.61 109.816C195.919 109.987 196.298 110.072 196.746 110.072C197.13 110.072 197.471 110.013 197.77 109.896C198.079 109.779 198.33 109.645 198.522 109.496L198.938 110.472ZM204.685 107.688L203.453 107.88L201.341 111H199.789L201.709 108.264L202.349 107.672C201.794 107.587 201.319 107.363 200.925 107C200.541 106.637 200.349 106.147 200.349 105.528C200.349 105.048 200.429 104.637 200.589 104.296C200.759 103.955 200.999 103.672 201.309 103.448C201.618 103.224 201.986 103.064 202.413 102.968C202.839 102.861 203.319 102.808 203.853 102.808C204.247 102.808 204.615 102.835 204.957 102.888C205.298 102.941 205.634 103 205.965 103.064V111H204.685V107.688ZM204.685 104.088C204.546 104.035 204.391 103.997 204.221 103.976C204.05 103.944 203.901 103.928 203.773 103.928C203.09 103.928 202.567 104.051 202.205 104.296C201.853 104.541 201.677 104.931 201.677 105.464C201.677 105.944 201.863 106.317 202.237 106.584C202.621 106.84 203.122 106.968 203.741 106.968C203.751 106.968 203.767 106.968 203.789 106.968C203.81 106.968 203.853 106.968 203.917 106.968C203.981 106.968 204.071 106.968 204.189 106.968C204.306 106.957 204.471 106.947 204.685 106.936V104.088ZM53.968 124.424C54.32 123.912 54.7093 123.555 55.136 123.352C55.5627 123.139 56.096 123.032 56.736 123.032C57.7173 123.032 58.4693 123.352 58.992 123.992C59.5253 124.632 59.792 125.576 59.792 126.824C59.792 128.264 59.4827 129.352 58.864 130.088C58.256 130.824 57.4027 131.192 56.304 131.192C55.1307 131.192 54.2507 130.787 53.664 129.976C53.0773 129.165 52.784 127.891 52.784 126.152C52.784 125.235 52.8267 124.451 52.912 123.8C53.008 123.149 53.1413 122.6 53.312 122.152C53.4933 121.704 53.7067 121.347 53.952 121.08C54.208 120.813 54.4907 120.605 54.8 120.456C55.12 120.296 55.4667 120.184 55.84 120.12C56.2133 120.056 56.6133 120.003 57.04 119.96C57.5947 119.907 58.0267 119.848 58.336 119.784C58.656 119.709 58.912 119.581 59.104 119.4L59.248 120.552C59.1413 120.648 59.024 120.728 58.896 120.792C58.768 120.856 58.6133 120.909 58.432 120.952C58.2507 120.995 58.032 121.032 57.776 121.064C57.5307 121.096 57.2427 121.123 56.912 121.144C56.4533 121.176 56.048 121.235 55.696 121.32C55.3547 121.395 55.056 121.549 54.8 121.784C54.5547 122.008 54.3573 122.333 54.208 122.76C54.0693 123.176 53.9733 123.731 53.92 124.424H53.968ZM54.112 127.016C54.112 127.421 54.1547 127.811 54.24 128.184C54.3253 128.557 54.4533 128.888 54.624 129.176C54.8053 129.453 55.0347 129.672 55.312 129.832C55.5893 129.992 55.9147 130.072 56.288 130.072C57.024 130.072 57.568 129.811 57.92 129.288C58.2827 128.755 58.464 127.971 58.464 126.936C58.464 126.531 58.4267 126.157 58.352 125.816C58.2773 125.475 58.16 125.181 58 124.936C57.84 124.68 57.6373 124.488 57.392 124.36C57.1467 124.221 56.8533 124.152 56.512 124.152C55.68 124.141 55.072 124.387 54.688 124.888C54.304 125.379 54.112 126.088 54.112 127.016ZM67.6501 130.36C67.3301 130.616 66.9248 130.819 66.4341 130.968C65.9541 131.117 65.4421 131.192 64.8981 131.192C64.2901 131.192 63.7621 131.096 63.3141 130.904C62.8661 130.701 62.4981 130.419 62.2101 130.056C61.9221 129.683 61.7088 129.24 61.5701 128.728C61.4315 128.216 61.3621 127.64 61.3621 127C61.3621 125.635 61.6661 124.595 62.2741 123.88C62.8821 123.165 63.7515 122.808 64.8821 122.808C65.2448 122.808 65.6075 122.851 65.9701 122.936C66.3328 123.011 66.6581 123.16 66.9461 123.384C67.2341 123.608 67.4688 123.928 67.6501 124.344C67.8315 124.749 67.9221 125.288 67.9221 125.96C67.9221 126.312 67.8901 126.701 67.8261 127.128H62.6901C62.6901 127.597 62.7381 128.013 62.8341 128.376C62.9301 128.739 63.0795 129.048 63.2821 129.304C63.4848 129.549 63.7461 129.741 64.0661 129.88C64.3968 130.008 64.7968 130.072 65.2661 130.072C65.6288 130.072 65.9915 130.008 66.3541 129.88C66.7168 129.752 66.9888 129.603 67.1701 129.432L67.6501 130.36ZM64.8981 123.928C64.2688 123.928 63.7621 124.093 63.3781 124.424C63.0048 124.755 62.7808 125.32 62.7061 126.12H66.6741C66.6741 125.309 66.5195 124.744 66.2101 124.424C65.9008 124.093 65.4635 123.928 64.8981 123.928ZM75.2193 130.472C74.8993 130.707 74.5206 130.883 74.0833 131C73.6459 131.128 73.1873 131.192 72.7073 131.192C72.0886 131.192 71.5659 131.096 71.1393 130.904C70.7126 130.701 70.3606 130.419 70.0833 130.056C69.8166 129.683 69.6193 129.24 69.4913 128.728C69.3739 128.205 69.3153 127.629 69.3153 127C69.3153 125.645 69.6139 124.611 70.2113 123.896C70.8086 123.171 71.6673 122.808 72.7873 122.808C73.2993 122.808 73.7313 122.851 74.0833 122.936C74.4459 123.011 74.7713 123.123 75.0593 123.272L74.6913 124.376C74.4459 124.237 74.1739 124.131 73.8753 124.056C73.5766 123.971 73.2566 123.928 72.9153 123.928C71.4006 123.928 70.6432 124.952 70.6432 127C70.6432 127.405 70.6806 127.795 70.7553 128.168C70.8406 128.531 70.9739 128.856 71.1553 129.144C71.3473 129.421 71.5926 129.645 71.8913 129.816C72.2006 129.987 72.5793 130.072 73.0273 130.072C73.4113 130.072 73.7526 130.013 74.0513 129.896C74.3606 129.779 74.6113 129.645 74.8033 129.496L75.2193 130.472ZM81.798 124.12H78.262V131H76.982V123H83.078V131H81.798V124.12ZM89.8485 124.12H87.5285C87.4965 124.568 87.4645 125.053 87.4325 125.576C87.4005 126.088 87.3525 126.605 87.2885 127.128C87.2245 127.64 87.1392 128.136 87.0325 128.616C86.9258 129.085 86.7872 129.501 86.6165 129.864C86.4565 130.227 86.2538 130.52 86.0085 130.744C85.7738 130.957 85.4912 131.064 85.1605 131.064C84.9578 131.064 84.7818 131.053 84.6325 131.032C84.4832 131.011 84.3498 130.973 84.2325 130.92L84.4245 129.848C84.5525 129.891 84.6912 129.912 84.8405 129.912C85.0538 129.912 85.2458 129.821 85.4165 129.64C85.5872 129.459 85.7365 129.117 85.8645 128.616C85.9925 128.104 86.0992 127.4 86.1845 126.504C86.2698 125.608 86.3285 124.44 86.3605 123H91.1285V131H89.8485V124.12ZM93.4634 123.592C93.8687 123.347 94.338 123.165 94.8714 123.048C95.4154 122.931 95.9807 122.872 96.5674 122.872C97.122 122.872 97.5647 122.947 97.8954 123.096C98.2367 123.245 98.4927 123.443 98.6634 123.688C98.8447 123.923 98.962 124.184 99.0154 124.472C99.0794 124.76 99.1114 125.048 99.1114 125.336C99.1114 125.976 99.0954 126.6 99.0634 127.208C99.0314 127.816 99.0154 128.392 99.0154 128.936C99.0154 129.331 99.0314 129.704 99.0634 130.056C99.0954 130.408 99.154 130.733 99.2394 131.032H98.2954L97.9594 129.912H97.8794C97.7834 130.061 97.6607 130.211 97.5114 130.36C97.3727 130.499 97.202 130.627 96.9994 130.744C96.7967 130.851 96.562 130.941 96.2954 131.016C96.0287 131.091 95.7247 131.128 95.3834 131.128C95.042 131.128 94.722 131.075 94.4234 130.968C94.1354 130.861 93.8847 130.712 93.6714 130.52C93.458 130.317 93.2874 130.077 93.1594 129.8C93.042 129.523 92.9834 129.208 92.9834 128.856C92.9834 128.387 93.0794 127.997 93.2714 127.688C93.4634 127.368 93.73 127.117 94.0714 126.936C94.4234 126.744 94.8394 126.611 95.3194 126.536C95.81 126.451 96.3487 126.408 96.9354 126.408C97.0847 126.408 97.2287 126.408 97.3674 126.408C97.5167 126.408 97.666 126.419 97.8154 126.44C97.8474 126.12 97.8634 125.832 97.8634 125.576C97.8634 124.989 97.746 124.579 97.5114 124.344C97.2767 124.109 96.85 123.992 96.2314 123.992C96.05 123.992 95.8527 124.008 95.6394 124.04C95.4367 124.061 95.2234 124.099 94.9994 124.152C94.786 124.195 94.578 124.253 94.3754 124.328C94.1834 124.392 94.0127 124.467 93.8634 124.552L93.4634 123.592ZM95.7354 130.008C96.034 130.008 96.3007 129.971 96.5354 129.896C96.77 129.811 96.9727 129.709 97.1434 129.592C97.314 129.464 97.4527 129.325 97.5594 129.176C97.6767 129.027 97.762 128.883 97.8154 128.744V127.416C97.666 127.405 97.5114 127.4 97.3514 127.4C97.202 127.389 97.0527 127.384 96.9034 127.384C96.5727 127.384 96.2474 127.405 95.9274 127.448C95.618 127.48 95.3407 127.549 95.0954 127.656C94.8607 127.752 94.6687 127.891 94.5194 128.072C94.3807 128.243 94.3114 128.461 94.3114 128.728C94.3114 129.101 94.4447 129.411 94.7114 129.656C94.978 129.891 95.3194 130.008 95.7354 130.008ZM106.633 124.12H104.121V131H102.841V124.12H100.329V123H106.633V124.12ZM112.8 127.464H109.184V131H107.904V123H109.184V126.344H112.8V123H114.08V131H112.8V127.464ZM116.097 127C116.097 125.645 116.395 124.611 116.993 123.896C117.601 123.171 118.47 122.808 119.601 122.808C120.198 122.808 120.715 122.909 121.153 123.112C121.601 123.304 121.969 123.587 122.257 123.96C122.545 124.323 122.758 124.765 122.897 125.288C123.035 125.8 123.105 126.371 123.105 127C123.105 128.355 122.801 129.395 122.193 130.12C121.595 130.835 120.731 131.192 119.601 131.192C119.003 131.192 118.481 131.096 118.033 130.904C117.595 130.701 117.233 130.419 116.945 130.056C116.657 129.683 116.443 129.24 116.305 128.728C116.166 128.205 116.097 127.629 116.097 127ZM117.424 127C117.424 127.405 117.462 127.795 117.537 128.168C117.622 128.541 117.75 128.867 117.921 129.144C118.091 129.421 118.315 129.645 118.593 129.816C118.87 129.987 119.206 130.072 119.601 130.072C121.051 130.083 121.777 129.059 121.777 127C121.777 126.584 121.734 126.189 121.649 125.816C121.574 125.443 121.451 125.117 121.281 124.84C121.11 124.563 120.886 124.344 120.609 124.184C120.331 124.013 119.995 123.928 119.601 123.928C118.15 123.917 117.424 124.941 117.424 127ZM124.487 130.264C124.487 129.976 124.567 129.752 124.727 129.592C124.898 129.421 125.122 129.336 125.399 129.336C125.687 129.336 125.916 129.421 126.087 129.592C126.258 129.752 126.343 129.976 126.343 130.264C126.343 130.541 126.258 130.765 126.087 130.936C125.916 131.107 125.687 131.192 125.399 131.192C125.122 131.192 124.898 131.107 124.727 130.936C124.567 130.765 124.487 130.541 124.487 130.264Z" fill="white"/>
<g clip-path="url(#clip0_64950_317)">
<path d="M157.5 6L167 15H148L157.5 6Z" fill="#333333"/>
</g>
<defs>
<filter id="filter0_d_64950_317" x="0" y="0" width="316" height="203" filterUnits="userSpaceOnUse" color-interpolation-filters="sRGB">
<feFlood flood-opacity="0" result="BackgroundImageFix"/>
<feColorMatrix in="SourceAlpha" type="matrix" values="0 0 0 0 0 0 0 0 0 0 0 0 0 0 0 0 0 0 127 0" result="hardAlpha"/>
<feOffset dy="15"/>
<feGaussianBlur stdDeviation="15"/>
<feColorMatrix type="matrix" values="0 0 0 0 0 0 0 0 0 0 0 0 0 0 0 0 0 0 0.3 0"/>
<feBlend mode="normal" in2="BackgroundImageFix" result="effect1_dropShadow_64950_317"/>
<feBlend mode="normal" in="SourceGraphic" in2="effect1_dropShadow_64950_317" result="shape"/>
</filter>
<clipPath id="clip0_64950_317">
<rect width="19" height="9" fill="white" transform="translate(148 6)"/>
</clipPath>
</defs>
</svg>
