<svg width="327" height="38" viewBox="0 0 327 38" fill="none" xmlns="http://www.w3.org/2000/svg">
<path d="M0.904688 13.8633H7.94469V6.6233H10.8247V13.8633H17.8647V16.7433H10.8247V23.9433H7.94469V16.7433H0.904688V13.8633ZM23.9 28.8233L33.94 5.3833L35.7 3.4233L33.34 3.7833H21.94V0.823301H38.66V1.9033L27.14 28.8233H23.9ZM58.8925 37.6233C57.6658 36.3433 56.6258 34.93 55.7725 33.3833C54.9192 31.8633 54.2258 30.3033 53.6925 28.7033C53.1858 27.0766 52.8125 25.45 52.5725 23.8233C52.3325 22.17 52.2125 20.5966 52.2125 19.1033C52.2125 17.6366 52.3325 16.09 52.5725 14.4633C52.8125 12.8366 53.1992 11.21 53.7325 9.5833C54.2658 7.92997 54.9592 6.31663 55.8125 4.7433C56.6925 3.16997 57.7592 1.7033 59.0125 0.343303L60.9325 1.7433C59.8658 3.1033 58.9725 4.51663 58.2525 5.9833C57.5592 7.4233 56.9992 8.88997 56.5725 10.3833C56.1458 11.8766 55.8392 13.37 55.6525 14.8633C55.4925 16.33 55.4125 17.7433 55.4125 19.1033C55.4125 20.3833 55.5058 21.7833 55.6925 23.3033C55.9058 24.7966 56.2258 26.3033 56.6525 27.8233C57.1058 29.3166 57.6792 30.7833 58.3725 32.2233C59.0925 33.6633 59.9458 34.97 60.9325 36.1433L58.8925 37.6233ZM63.7434 22.1433C63.7434 20.4633 64.1834 19.01 65.0634 17.7833C65.9434 16.53 67.3168 15.3966 69.1834 14.3833C68.5168 13.9833 67.8901 13.57 67.3034 13.1433C66.7434 12.69 66.2368 12.1833 65.7834 11.6233C65.3568 11.0633 65.0101 10.4366 64.7434 9.7433C64.5034 9.04997 64.3834 8.24997 64.3834 7.3433C64.3834 6.3033 64.5568 5.35664 64.9034 4.5033C65.2768 3.64997 65.7968 2.91663 66.4634 2.3033C67.1568 1.68997 67.9701 1.20997 68.9034 0.863301C69.8634 0.516635 70.9434 0.343303 72.1434 0.343303C73.2634 0.343303 74.2768 0.503302 75.1834 0.823301C76.0901 1.1433 76.8501 1.5833 77.4634 2.1433C78.1034 2.7033 78.5968 3.36997 78.9434 4.1433C79.2901 4.91664 79.4634 5.76997 79.4634 6.7033C79.4634 8.2233 79.1168 9.56997 78.4234 10.7433C77.7301 11.89 76.5834 13.0233 74.9834 14.1433C75.6768 14.5433 76.3301 14.9833 76.9434 15.4633C77.5834 15.9433 78.1301 16.4766 78.5834 17.0633C79.0634 17.65 79.4368 18.3166 79.7034 19.0633C79.9701 19.7833 80.1034 20.61 80.1034 21.5433C80.1034 22.69 79.9168 23.7433 79.5434 24.7033C79.1701 25.6366 78.6234 26.45 77.9034 27.1433C77.1834 27.81 76.3034 28.3433 75.2634 28.7433C74.2234 29.1166 73.0368 29.3033 71.7034 29.3033C70.4234 29.3033 69.2901 29.1166 68.3034 28.7433C67.3168 28.37 66.4768 27.8633 65.7834 27.2233C65.1168 26.5833 64.6101 25.8366 64.2634 24.9833C63.9168 24.1033 63.7434 23.1566 63.7434 22.1433ZM76.9834 21.7433C76.9834 20.9433 76.8234 20.25 76.5034 19.6633C76.1834 19.05 75.7568 18.5033 75.2234 18.0233C74.7168 17.5166 74.1301 17.0633 73.4634 16.6633C72.7968 16.2633 72.1034 15.8766 71.3834 15.5033C69.7568 16.41 68.5968 17.4233 67.9034 18.5433C67.2101 19.6633 66.8634 20.73 66.8634 21.7433C66.8634 22.3833 66.9701 22.9966 67.1834 23.5833C67.3968 24.17 67.7168 24.6766 68.1434 25.1033C68.5701 25.53 69.0901 25.8766 69.7034 26.1433C70.3434 26.3833 71.0768 26.5033 71.9034 26.5033C72.5701 26.5033 73.2101 26.41 73.8234 26.2233C74.4368 26.01 74.9701 25.7166 75.4234 25.3433C75.9034 24.9433 76.2768 24.45 76.5434 23.8633C76.8368 23.25 76.9834 22.5433 76.9834 21.7433ZM67.5034 7.2633C67.5034 8.00997 67.6501 8.67664 67.9434 9.2633C68.2368 9.8233 68.6234 10.33 69.1034 10.7833C69.6101 11.2366 70.1834 11.6633 70.8234 12.0633C71.4634 12.4366 72.1301 12.7966 72.8234 13.1433C74.0234 12.21 74.9034 11.29 75.4634 10.3833C76.0501 9.47664 76.3434 8.47664 76.3434 7.3833C76.3434 6.0233 75.9168 4.9833 75.0634 4.2633C74.2368 3.51664 73.2368 3.1433 72.0634 3.1433C71.3434 3.1433 70.7034 3.2633 70.1434 3.5033C69.5834 3.7433 69.1034 4.04997 68.7034 4.4233C68.3034 4.79664 67.9968 5.23664 67.7834 5.7433C67.5968 6.2233 67.5034 6.72997 67.5034 7.2633ZM87.1403 25.8633H92.7403V6.5033L93.1403 4.1433L91.5403 6.0233L87.1403 9.1833L85.6203 7.1433L94.4203 0.343303H95.8603V25.8633H101.34V28.8233H87.1403V25.8633ZM122.457 7.1833C122.457 8.59664 122.191 10.05 121.657 11.5433C121.151 13.01 120.471 14.49 119.617 15.9833C118.791 17.4766 117.857 18.9433 116.817 20.3833C115.777 21.7966 114.737 23.1433 113.697 24.4233L111.737 26.1433V26.3033L114.297 25.8633H123.017V28.8233H107.097V27.6633C107.684 27.05 108.391 26.29 109.217 25.3833C110.044 24.4766 110.897 23.4766 111.777 22.3833C112.684 21.2633 113.564 20.09 114.417 18.8633C115.297 17.61 116.084 16.3433 116.777 15.0633C117.497 13.7833 118.071 12.5166 118.497 11.2633C118.924 10.01 119.137 8.8233 119.137 7.7033C119.137 6.39664 118.764 5.31664 118.017 4.4633C117.271 3.5833 116.137 3.1433 114.617 3.1433C113.604 3.1433 112.617 3.35664 111.657 3.7833C110.697 4.1833 109.871 4.64997 109.177 5.1833L107.857 2.9033C108.791 2.1033 109.897 1.47663 111.177 1.0233C112.457 0.569969 113.831 0.343303 115.297 0.343303C116.444 0.343303 117.457 0.516635 118.337 0.863301C119.217 1.1833 119.964 1.64997 120.577 2.2633C121.191 2.87664 121.657 3.60997 121.977 4.4633C122.297 5.28997 122.457 6.19664 122.457 7.1833ZM128.534 0.343303C129.761 1.6233 130.801 3.03664 131.654 4.5833C132.507 6.1033 133.187 7.67664 133.694 9.3033C134.227 10.9033 134.614 12.53 134.854 14.1833C135.094 15.81 135.214 17.37 135.214 18.8633C135.214 20.33 135.094 21.8766 134.854 23.5033C134.614 25.13 134.227 26.77 133.694 28.4233C133.161 30.05 132.454 31.65 131.574 33.2233C130.721 34.7966 129.667 36.2633 128.414 37.6233L126.494 36.2233C127.561 34.8633 128.454 33.45 129.174 31.9833C129.894 30.5166 130.454 29.0366 130.854 27.5433C131.281 26.05 131.574 24.57 131.734 23.1033C131.921 21.6366 132.014 20.2233 132.014 18.8633C132.014 17.5833 131.907 16.1966 131.694 14.7033C131.481 13.21 131.147 11.7033 130.694 10.1833C130.267 8.6633 129.707 7.1833 129.014 5.7433C128.321 4.3033 127.481 2.99664 126.494 1.8233L128.534 0.343303ZM151.009 22.1433C151.009 20.4633 151.449 19.01 152.329 17.7833C153.209 16.53 154.582 15.3966 156.449 14.3833C155.782 13.9833 155.156 13.57 154.569 13.1433C154.009 12.69 153.502 12.1833 153.049 11.6233C152.622 11.0633 152.276 10.4366 152.009 9.7433C151.769 9.04997 151.649 8.24997 151.649 7.3433C151.649 6.3033 151.822 5.35664 152.169 4.5033C152.542 3.64997 153.062 2.91663 153.729 2.3033C154.422 1.68997 155.236 1.20997 156.169 0.863301C157.129 0.516635 158.209 0.343303 159.409 0.343303C160.529 0.343303 161.542 0.503302 162.449 0.823301C163.356 1.1433 164.116 1.5833 164.729 2.1433C165.369 2.7033 165.862 3.36997 166.209 4.1433C166.556 4.91664 166.729 5.76997 166.729 6.7033C166.729 8.2233 166.382 9.56997 165.689 10.7433C164.996 11.89 163.849 13.0233 162.249 14.1433C162.942 14.5433 163.596 14.9833 164.209 15.4633C164.849 15.9433 165.396 16.4766 165.849 17.0633C166.329 17.65 166.702 18.3166 166.969 19.0633C167.236 19.7833 167.369 20.61 167.369 21.5433C167.369 22.69 167.182 23.7433 166.809 24.7033C166.436 25.6366 165.889 26.45 165.169 27.1433C164.449 27.81 163.569 28.3433 162.529 28.7433C161.489 29.1166 160.302 29.3033 158.969 29.3033C157.689 29.3033 156.556 29.1166 155.569 28.7433C154.582 28.37 153.742 27.8633 153.049 27.2233C152.382 26.5833 151.876 25.8366 151.529 24.9833C151.182 24.1033 151.009 23.1566 151.009 22.1433ZM164.249 21.7433C164.249 20.9433 164.089 20.25 163.769 19.6633C163.449 19.05 163.022 18.5033 162.489 18.0233C161.982 17.5166 161.396 17.0633 160.729 16.6633C160.062 16.2633 159.369 15.8766 158.649 15.5033C157.022 16.41 155.862 17.4233 155.169 18.5433C154.476 19.6633 154.129 20.73 154.129 21.7433C154.129 22.3833 154.236 22.9966 154.449 23.5833C154.662 24.17 154.982 24.6766 155.409 25.1033C155.836 25.53 156.356 25.8766 156.969 26.1433C157.609 26.3833 158.342 26.5033 159.169 26.5033C159.836 26.5033 160.476 26.41 161.089 26.2233C161.702 26.01 162.236 25.7166 162.689 25.3433C163.169 24.9433 163.542 24.45 163.809 23.8633C164.102 23.25 164.249 22.5433 164.249 21.7433ZM154.769 7.2633C154.769 8.00997 154.916 8.67664 155.209 9.2633C155.502 9.8233 155.889 10.33 156.369 10.7833C156.876 11.2366 157.449 11.6633 158.089 12.0633C158.729 12.4366 159.396 12.7966 160.089 13.1433C161.289 12.21 162.169 11.29 162.729 10.3833C163.316 9.47664 163.609 8.47664 163.609 7.3833C163.609 6.0233 163.182 4.9833 162.329 4.2633C161.502 3.51664 160.502 3.1433 159.329 3.1433C158.609 3.1433 157.969 3.2633 157.409 3.5033C156.849 3.7433 156.369 4.04997 155.969 4.4233C155.569 4.79664 155.262 5.23664 155.049 5.7433C154.862 6.2233 154.769 6.72997 154.769 7.2633ZM174.406 25.8633H180.006V6.5033L180.406 4.1433L178.806 6.0233L174.406 9.1833L172.886 7.1433L181.686 0.343303H183.126V25.8633H188.606V28.8233H174.406V25.8633ZM209.723 7.1833C209.723 8.59664 209.456 10.05 208.923 11.5433C208.416 13.01 207.736 14.49 206.883 15.9833C206.056 17.4766 205.123 18.9433 204.083 20.3833C203.043 21.7966 202.003 23.1433 200.963 24.4233L199.003 26.1433V26.3033L201.563 25.8633H210.283V28.8233H194.363V27.6633C194.949 27.05 195.656 26.29 196.483 25.3833C197.309 24.4766 198.163 23.4766 199.043 22.3833C199.949 21.2633 200.829 20.09 201.683 18.8633C202.563 17.61 203.349 16.3433 204.043 15.0633C204.763 13.7833 205.336 12.5166 205.763 11.2633C206.189 10.01 206.403 8.8233 206.403 7.7033C206.403 6.39664 206.029 5.31664 205.283 4.4633C204.536 3.5833 203.403 3.1433 201.883 3.1433C200.869 3.1433 199.883 3.35664 198.923 3.7833C197.963 4.1833 197.136 4.64997 196.443 5.1833L195.123 2.9033C196.056 2.1033 197.163 1.47663 198.443 1.0233C199.723 0.569969 201.096 0.343303 202.563 0.343303C203.709 0.343303 204.723 0.516635 205.603 0.863301C206.483 1.1833 207.229 1.64997 207.843 2.2633C208.456 2.87664 208.923 3.60997 209.243 4.4633C209.563 5.28997 209.723 6.19664 209.723 7.1833ZM216.04 15.8233H225.72V18.7833H216.04V15.8233ZM232.414 25.8633H238.014V6.5033L238.414 4.1433L236.814 6.0233L232.414 9.1833L230.894 7.1433L239.694 0.343303H241.134V25.8633H246.614V28.8233H232.414V25.8633ZM267.731 7.1833C267.731 8.59664 267.464 10.05 266.931 11.5433C266.424 13.01 265.744 14.49 264.891 15.9833C264.064 17.4766 263.131 18.9433 262.091 20.3833C261.051 21.7966 260.011 23.1433 258.971 24.4233L257.011 26.1433V26.3033L259.571 25.8633H268.291V28.8233H252.371V27.6633C252.957 27.05 253.664 26.29 254.491 25.3833C255.317 24.4766 256.171 23.4766 257.051 22.3833C257.957 21.2633 258.837 20.09 259.691 18.8633C260.571 17.61 261.357 16.3433 262.051 15.0633C262.771 13.7833 263.344 12.5166 263.771 11.2633C264.197 10.01 264.411 8.8233 264.411 7.7033C264.411 6.39664 264.037 5.31664 263.291 4.4633C262.544 3.5833 261.411 3.1433 259.891 3.1433C258.877 3.1433 257.891 3.35664 256.931 3.7833C255.971 4.1833 255.144 4.64997 254.451 5.1833L253.131 2.9033C254.064 2.1033 255.171 1.47663 256.451 1.0233C257.731 0.569969 259.104 0.343303 260.571 0.343303C261.717 0.343303 262.731 0.516635 263.611 0.863301C264.491 1.1833 265.237 1.64997 265.851 2.2633C266.464 2.87664 266.931 3.60997 267.251 4.4633C267.571 5.28997 267.731 6.19664 267.731 7.1833ZM274.048 15.8233H283.728V18.7833H274.048V15.8233ZM290.422 25.8633H296.022V6.5033L296.422 4.1433L294.822 6.0233L290.422 9.1833L288.902 7.1433L297.702 0.343303H299.142V25.8633H304.622V28.8233H290.422V25.8633ZM325.738 7.1833C325.738 8.59664 325.472 10.05 324.938 11.5433C324.432 13.01 323.752 14.49 322.898 15.9833C322.072 17.4766 321.138 18.9433 320.098 20.3833C319.058 21.7966 318.018 23.1433 316.978 24.4233L315.018 26.1433V26.3033L317.578 25.8633H326.298V28.8233H310.378V27.6633C310.965 27.05 311.672 26.29 312.498 25.3833C313.325 24.4766 314.178 23.4766 315.058 22.3833C315.965 21.2633 316.845 20.09 317.698 18.8633C318.578 17.61 319.365 16.3433 320.058 15.0633C320.778 13.7833 321.352 12.5166 321.778 11.2633C322.205 10.01 322.418 8.8233 322.418 7.7033C322.418 6.39664 322.045 5.31664 321.298 4.4633C320.552 3.5833 319.418 3.1433 317.898 3.1433C316.885 3.1433 315.898 3.35664 314.938 3.7833C313.978 4.1833 313.152 4.64997 312.458 5.1833L311.138 2.9033C312.072 2.1033 313.178 1.47663 314.458 1.0233C315.738 0.569969 317.112 0.343303 318.578 0.343303C319.725 0.343303 320.738 0.516635 321.618 0.863301C322.498 1.1833 323.245 1.64997 323.858 2.2633C324.472 2.87664 324.938 3.60997 325.258 4.4633C325.578 5.28997 325.738 6.19664 325.738 7.1833Z"/>
</svg>
